<svg xmlns="http://www.w3.org/2000/svg" width="24" height="24" viewBox="0 0 24 24" fill="none"><path d="M20.9282 23.3168H4.07191C3.16182 23.3168 2.44958 22.565 2.44958 21.6945V2.62232C2.44958 1.71224 3.20139 1 4.07191 1H20.8887C21.7987 1 22.511 1.75181 22.511 2.62232V21.6945C22.5505 22.6046 21.8383 23.3168 20.9282 23.3168Z" stroke="#1F3346" stroke-width="0.7" stroke-miterlimit="10" stroke-linecap="round" stroke-linejoin="round"></path><path d="M17.0902 9.15131H7.91021C7.07927 9.15131 6.44617 8.47864 6.44617 7.68727V4.83831C6.44617 4.00737 7.11884 3.37427 7.91021 3.37427H17.1297C17.9607 3.37427 18.5938 4.04694 18.5938 4.83831V7.68727C18.5938 8.47864 17.9211 9.15131 17.0902 9.15131Z" stroke="#1F3346" stroke-width="0.7" stroke-miterlimit="10" stroke-linecap="round" stroke-linejoin="round"></path><path d="M9.25539 7.56859H8.46402C8.14747 7.56859 7.87048 7.29161 7.87048 6.97506V5.51101C7.87048 5.19446 8.14747 4.91748 8.46402 4.91748H9.25539C9.57194 4.91748 9.84892 5.19446 9.84892 5.51101V6.97506C9.84892 7.29161 9.57194 7.56859 9.25539 7.56859Z" stroke="#1F3346" stroke-width="0.7" stroke-miterlimit="10" stroke-linecap="round" stroke-linejoin="round"></path><path d="M13.4499 7.56859H12.6585C12.3419 7.56859 12.0649 7.29161 12.0649 6.97506V5.51101C12.0649 5.19446 12.3419 4.91748 12.6585 4.91748H13.4499C13.7664 4.91748 14.0434 5.19446 14.0434 5.51101V6.97506C14.0434 7.29161 13.806 7.56859 13.4499 7.56859Z" stroke="#1F3346" stroke-width="0.7" stroke-miterlimit="10" stroke-linecap="round" stroke-linejoin="round"></path><path d="M16.5362 7.56859H15.7448C15.4282 7.56859 15.1512 7.29161 15.1512 6.97506V5.51101C15.1512 5.19446 15.4282 4.91748 15.7448 4.91748H16.5362C16.8527 4.91748 17.1297 5.19446 17.1297 5.51101V6.97506C17.1297 7.29161 16.8527 7.56859 16.5362 7.56859Z" stroke="#1F3346" stroke-width="0.7" stroke-miterlimit="10" stroke-linecap="round" stroke-linejoin="round"></path><path d="M10.9569 6.89575V7.48928" stroke="#1F3346" stroke-width="0.7" stroke-miterlimit="10" stroke-linecap="round" stroke-linejoin="round"></path><path d="M2.44958 17.6189C4.66544 17.6189 6.44603 19.3995 6.44603 21.6153V23.3564" stroke="#1F3346" stroke-width="0.7" stroke-miterlimit="10" stroke-linecap="round" stroke-linejoin="round"></path><path d="M22.5505 17.6189C20.3347 17.6189 18.5541 19.3995 18.5541 21.6153V23.3564" stroke="#1F3346" stroke-width="0.7" stroke-miterlimit="10" stroke-linecap="round" stroke-linejoin="round"></path></svg>
