<svg width="26" height="26" viewBox="0 0 26 26" fill="none" xmlns="http://www.w3.org/2000/svg">
<path d="M22.6442 24.2666H4.22344C3.3308 24.2666 2.60046 23.5848 2.60046 22.7515V4.11513C2.60046 3.28179 3.3308 2.59998 4.22344 2.59998H22.6442C23.5368 2.59998 24.2671 3.28179 24.2671 4.11513V22.7515C24.2266 23.5848 23.5368 24.2666 22.6442 24.2666Z" stroke="white" stroke-miterlimit="10" stroke-linecap="round" stroke-linejoin="round"/>
<path d="M16.3552 12.4484C14.57 11.4257 12.2978 11.4257 10.5531 12.4484C9.9445 12.7893 9.13302 12.5999 8.76785 12.0318L6.53626 8.43327C6.21167 7.94085 6.33339 7.29691 6.82028 6.91812C10.6748 3.96357 16.2335 3.96357 20.0881 6.91812C20.575 7.29691 20.6561 7.94085 20.3721 8.43327L18.1405 12.0318C17.7753 12.6378 16.9639 12.7893 16.3552 12.4484Z" stroke="white" stroke-miterlimit="10" stroke-linecap="round" stroke-linejoin="round"/>
<path d="M15.2596 11.9938C15.2596 11.9181 15.3002 11.8044 15.3002 11.6908C15.3002 10.7438 14.4481 9.94836 13.4337 9.94836C12.4194 9.94836 11.5673 10.7438 11.5673 11.6908C11.5673 11.8044 11.5673 11.8802 11.6079 11.9938" stroke="white" stroke-miterlimit="10" stroke-linecap="round" stroke-linejoin="round"/>
<path d="M12.7846 10.0621V8.09239C12.7846 7.75148 13.0686 7.48633 13.4338 7.48633C13.799 7.48633 14.083 7.75148 14.083 8.09239V10.0621" stroke="white" stroke-miterlimit="10" stroke-linecap="round" stroke-linejoin="round"/>
<path d="M13.4338 4.72125V5.8955" stroke="white" stroke-miterlimit="10" stroke-linecap="round" stroke-linejoin="round"/>
<path d="M8.56483 7.14535L7.71277 6.31201" stroke="white" stroke-miterlimit="10" stroke-linecap="round" stroke-linejoin="round"/>
<path d="M19.1954 6.31201L18.3433 7.14535" stroke="white" stroke-miterlimit="10" stroke-linecap="round" stroke-linejoin="round"/>
<path d="M13.4338 14.9103V21.8042" stroke="white" stroke-miterlimit="10" stroke-linecap="round" stroke-linejoin="round"/>
</svg>
