<svg xmlns="http://www.w3.org/2000/svg" width="22" height="22" viewBox="0 0 22 22" fill="none"><path d="M14.0625 0.6875C14.0625 0.308334 13.7542 0 13.375 0H1.6875C1.30833 0 1 0.308334 1 0.6875V2.75C1 3.12917 1.30833 3.4375 1.6875 3.4375H2.375V16.8438C2.375 19.6869 4.6881 22 7.53125 22C10.3744 22 12.6875 19.6869 12.6875 16.8438V3.4375H13.375C13.7542 3.4375 14.0625 3.12917 14.0625 2.75V0.6875ZM12 15.8125H8.21875C7.83958 15.8125 7.53125 15.5042 7.53125 15.125V9.625C7.53125 9.24583 7.83958 8.9375 8.21875 8.9375H12V15.8125ZM12 6.53125H3.0625V5.15625H12V6.53125ZM7.53125 21.3125C5.18312 21.3125 3.25653 19.4911 3.07991 17.1875H4.09375C4.28358 17.1875 4.4375 17.0336 4.4375 16.8438C4.4375 16.6539 4.28358 16.5 4.09375 16.5H3.0625V15.125H3.75C3.93983 15.125 4.09375 14.9711 4.09375 14.7812C4.09375 14.5914 3.93983 14.4375 3.75 14.4375H3.0625V13.0625H4.09375C4.28358 13.0625 4.4375 12.9086 4.4375 12.7188C4.4375 12.5289 4.28358 12.375 4.09375 12.375H3.0625V11H3.75C3.93983 11 4.09375 10.8461 4.09375 10.6562C4.09375 10.4664 3.93983 10.3125 3.75 10.3125H3.0625V8.9375H4.09375C4.28358 8.9375 4.4375 8.78358 4.4375 8.59375C4.4375 8.40392 4.28358 8.25 4.09375 8.25H3.0625V7.21875H12V8.25H8.21875C7.46059 8.25 6.84375 8.86684 6.84375 9.625V15.125C6.84375 15.8832 7.46059 16.5 8.21875 16.5H12V16.8438C12 19.3079 9.99541 21.3125 7.53125 21.3125ZM12 4.46875H3.0625V3.4375H12V4.46875ZM1.6875 2.75V0.6875H3.0625V1.71875C3.0625 1.90858 3.21642 2.0625 3.40625 2.0625C3.59608 2.0625 3.75 1.90858 3.75 1.71875V0.6875H5.125V1.71875C5.125 1.90858 5.27892 2.0625 5.46875 2.0625C5.65858 2.0625 5.8125 1.90858 5.8125 1.71875V0.6875H7.1875V1.71875C7.1875 1.90858 7.34142 2.0625 7.53125 2.0625C7.72108 2.0625 7.875 1.90858 7.875 1.71875V0.6875H9.25V1.71875C9.25 1.90858 9.40392 2.0625 9.59375 2.0625C9.78358 2.0625 9.9375 1.90858 9.9375 1.71875V0.6875H11.3125V1.71875C11.3125 1.90858 11.4664 2.0625 11.6562 2.0625C11.8461 2.0625 12 1.90858 12 1.71875V0.6875H13.375L13.3755 2.75H1.6875Z" fill="#061C31"></path><path d="M9.59375 12.375C10.3519 12.375 10.9688 11.7582 10.9688 11C10.9688 10.2418 10.3519 9.625 9.59375 9.625C8.83559 9.625 8.21875 10.2418 8.21875 11C8.21875 11.7582 8.83559 12.375 9.59375 12.375ZM9.59375 10.3125C9.97292 10.3125 10.2812 10.6208 10.2812 11C10.2812 11.3792 9.97292 11.6875 9.59375 11.6875C9.21458 11.6875 8.90625 11.3792 8.90625 11C8.90625 10.6208 9.21458 10.3125 9.59375 10.3125Z" fill="#061C31"></path><path d="M8.5625 13.0625C8.37267 13.0625 8.21875 13.2164 8.21875 13.4062C8.21875 13.5961 8.37267 13.75 8.5625 13.75H10.9688C11.1586 13.75 11.3125 13.5961 11.3125 13.4062C11.3125 13.2164 11.1586 13.0625 10.9688 13.0625H8.5625Z" fill="#061C31"></path><path d="M9.9375 14.4375H8.5625C8.37267 14.4375 8.21875 14.5914 8.21875 14.7812C8.21875 14.9711 8.37267 15.125 8.5625 15.125H9.9375C10.1273 15.125 10.2812 14.9711 10.2812 14.7812C10.2812 14.5914 10.1273 14.4375 9.9375 14.4375Z" fill="#061C31"></path><path d="M18.0408 3.49969C17.9226 3.41677 17.7649 3.41677 17.6467 3.49969C17.5003 3.60224 14.0625 6.04575 14.0625 9.28133C14.0625 11.3663 15.7588 13.0626 17.8438 13.0626C19.9287 13.0626 21.625 11.3663 21.625 9.28133C21.625 6.04575 18.1872 3.60224 18.0408 3.49969ZM17.8438 12.3751C16.1379 12.3751 14.75 10.9872 14.75 9.28133C14.75 6.82204 17.1334 4.76911 17.8438 4.21186C18.5541 4.76911 20.9375 6.82204 20.9375 9.28133C20.9375 10.9872 19.5496 12.3751 17.8438 12.3751Z" fill="#061C31"></path></svg>
