<svg xmlns="http://www.w3.org/2000/svg" width="174" height="315" viewBox="0 0 174 315" fill="none">
        <path
          fillRule="evenodd"
          clipRule="evenodd"
          d="M94.3868 38.298C95.056 33.6185 93.622 29.3644 92.4748 25.004C90.6583 17.9848 90.7539 12.6672 92.7616 8.94491C96.3944 0.968537 107.006 -1.47755 115.037 2.1384C120.486 4.58449 124.693 9.90208 124.502 18.3039C124.502 20.4309 124.31 21.9198 125.266 23.9405C125.744 25.004 126.414 25.8548 127.274 26.812C128.421 28.0882 128.421 29.6835 125.84 30.5343C124.788 30.8534 124.597 32.3423 124.597 34.1503C124.597 35.7455 124.597 37.6599 124.597 39.4678C124.31 42.552 123.259 45.2108 119.53 45.3172C113.698 45.5299 112.36 47.5506 111.882 52.8681C114.176 54.6761 116.853 56.9095 118.765 59.1429C123.546 64.7795 125.075 72.2242 124.98 79.8815C124.98 87.8578 124.215 96.685 123.068 105.725C123.068 105.725 123.832 106.363 124.884 106.576C126.892 107.107 128.612 105.619 130.142 104.342C131.576 103.066 133.106 102.853 134.635 102.96C136.069 103.066 137.599 103.279 138.842 103.811C140.945 104.661 141.519 106.682 141.328 108.915C141.136 111.787 140.467 115.297 139.129 118.062C137.312 121.784 134.827 123.167 131.194 122.209C128.899 121.571 126.987 120.508 124.98 119.551C122.59 118.381 123.259 118.593 121.442 118.168C119.148 133.27 116.089 148.372 113.603 161.453C122.781 169.536 140.563 188.041 149.741 205.483C152.991 211.545 154.807 215.905 155.19 220.266C155.668 224.413 154.807 228.667 152.895 234.623C149.932 243.769 148.402 251.746 147.637 260.36C146.586 271.314 144.865 287.905 153.373 295.35C156.911 298.434 161.978 300.455 168.957 303.007C170.964 303.752 172.781 304.815 173.45 306.198C174.119 307.474 173.832 309.176 172.016 311.196C169.148 314.493 163.794 314.812 158.727 314.387C154.999 314.174 151.27 313.536 148.785 313.536C146.394 313.536 144.1 313.536 141.901 313.855C136.93 314.281 133.297 314.387 131.289 312.685C129.568 311.196 129.09 308.218 129.951 302.688C132.341 287.267 132.819 280.567 131.289 264.189C130.238 252.278 127.943 239.941 132.915 225.477C122.207 218.67 111.978 211.119 102.226 202.824C98.3065 212.715 88.6507 229.944 81.2893 238.239C79.0904 240.792 76.4136 242.493 73.2587 243.344C64.9413 245.684 58.7271 247.598 50.6965 251.32C25.8399 262.7 19.2434 263.976 10.0655 291.734C9.20512 294.286 7.96229 296.626 6.33705 296.945C5.28543 297.158 4.1382 296.52 2.70416 294.925C-0.163907 291.628 -0.259511 285.672 0.2185 280.035C0.505307 275.888 1.17453 271.846 1.27013 268.975C1.27013 266.316 1.27013 263.763 1.27013 261.317C1.07892 256.319 0.983322 251.214 3.37338 248.874C4.80742 247.492 7.10187 247.066 10.926 248.236C20.1038 251.108 25.8399 248.662 33.2013 242.812C44.578 233.772 54.2338 228.242 62.1688 226.221C65.7061 215.905 68.0006 209.099 69.5302 203.462C72.0159 193.997 72.0159 187.828 70.9642 173.684C70.1038 162.517 68.4786 151.456 72.6851 140.715C74.4059 136.461 75.1707 130.505 75.3619 124.124C62.838 119.125 51.9394 114.446 39.9891 107.107C33.1057 102.96 33.0101 95.8342 35.3046 89.1341C40.3715 74.5639 51.0789 65.2049 61.7864 56.165C69.1478 49.3585 72.8763 48.295 78.8992 47.0188C83.4881 46.0616 94.9604 44.6791 94.9604 38.298M74.2147 109.022C73.3543 97.7486 71.1554 87.3261 69.4346 77.329C64.2721 81.3704 59.5876 84.9864 57.4843 86.5816C55.6679 87.9642 54.0426 89.7722 53.947 91.7929C53.947 92.8564 54.3294 94.0262 55.3811 95.1961C60.448 100.939 67.2357 105.406 74.2147 108.915M152.8 196.549C156.433 202.505 158.823 207.184 160.257 211.226C162.838 218.67 161.978 224.945 160.257 232.496C159.11 237.601 157.58 242.812 156.433 247.492C156.146 248.662 156.433 249.619 157.006 249.938C157.58 250.363 158.536 249.938 159.205 248.449C161.595 243.45 163.221 238.558 165.037 233.56C167.714 225.158 169.052 216.437 165.228 208.248C163.029 203.568 159.301 199.208 154.043 194.954C153.565 194.529 152.991 194.635 152.704 194.954C152.417 195.273 152.322 195.911 152.704 196.549M26.0311 274.399C29.7596 270.251 37.121 265.572 48.1153 260.467C55.3811 257.17 61.4996 255.043 68.5742 252.809C74.3103 251.001 78.8992 249.831 83.9662 245.79C87.4078 243.131 90.1803 239.196 94.578 232.071C94.9604 231.326 95.534 231.22 96.0121 231.433C96.4901 231.645 96.7769 232.283 96.5857 233.028C95.4384 239.409 94.3868 243.663 91.71 247.066C87.9815 251.852 81.0981 254.936 74.2147 257.17C64.7501 260.36 56.6239 262.7 48.4977 265.678C41.6143 268.23 34.731 271.314 26.8916 275.781C26.4135 276.1 25.9355 275.994 25.7443 275.675C25.5531 275.356 25.5531 274.824 25.8399 274.399M29.7596 110.83C20.9642 105.619 19.1478 96.685 21.4422 88.7086C24.5015 77.8608 34.6354 67.0129 42.4747 61.1636C42.8572 60.8445 43.2396 60.9509 43.4308 61.1636C43.7176 61.4826 43.7176 62.0144 43.3352 62.4398C36.3562 69.7781 29.186 80.0942 26.9872 90.623C25.5531 97.4295 26.4136 104.13 30.7157 109.554C31.0981 109.979 31.0025 110.511 30.8113 110.723C30.6201 111.042 30.2376 111.149 29.7596 110.83ZM117.236 230.582C116.662 243.344 118.67 256 122.972 267.805C123.259 268.549 123.832 268.762 124.406 268.656C124.884 268.443 125.266 267.911 125.171 267.06C122.207 251.214 121.729 238.984 123.832 230.369C124.024 229.412 124.024 228.667 123.832 228.029C123.546 227.391 122.972 226.859 122.207 226.434C117.331 223.882 112.647 221.01 108.249 217.713C107.58 217.181 107.006 217.394 106.624 217.713C106.337 218.139 106.242 218.777 106.624 219.415C109.683 223.669 113.316 227.498 117.331 230.688M133.488 172.939C149.358 165.282 157.102 147.947 157.58 130.505C157.962 117.317 154.138 104.023 146.394 94.9834C147.733 85.5181 144.578 75.4147 136.547 67.4383C135.974 66.9066 135.305 66.9066 134.922 67.332C134.54 67.7574 134.349 68.3955 134.731 69.2463C138.077 75.6274 142.092 83.7101 139.798 91.2611C139.224 93.1754 138.842 94.2389 138.938 95.1961C138.938 96.1533 139.129 97.3231 140.18 98.8121C146.586 108.384 149.836 120.082 149.836 131.675C149.836 146.67 144.196 161.453 132.532 170.918C131.863 171.45 131.863 172.088 132.054 172.62C132.341 173.046 132.915 173.365 133.488 173.046M54.8074 130.398C54.9986 129.867 54.8074 129.441 54.5206 129.229C54.2338 129.016 53.7558 129.122 53.5646 129.548C46.1076 141.353 43.9088 150.924 44.3868 160.815C44.7692 169.217 47.1593 177.831 49.8361 188.36C52.3218 198.357 54.6162 208.461 53.1822 213.034C41.9967 217.394 32.6277 225.902 26.6048 236.857C26.2223 237.495 26.4136 238.133 26.7004 238.452C27.0828 238.771 27.752 238.771 28.23 238.239C34.8266 230.369 43.3352 224.52 52.7042 221.542C55.8591 220.585 57.7711 219.202 59.014 217.075C60.0656 215.161 60.5436 212.715 60.5436 209.524C60.6392 202.611 58.4403 193.784 56.1459 184.957C53.6602 175.385 51.3658 166.558 50.6965 157.625C50.0273 148.904 50.9834 140.077 54.8074 130.505"
          fill="white"
          fillOpacity="0.2"
        />
      </svg>