<svg xmlns="http://www.w3.org/2000/svg" width="24" height="24" viewBox="0 0 24 24" fill="none"><g clip-path="url(#clip0_10_1081)"><path d="M23.5441 5.21808C23.2676 4.3899 22.2895 3.47327 20.9905 2.82545C19.0774 1.87531 17.2749 1.87842 16.7981 2.83332C16.5429 3.34785 16.7304 4.01398 17.3119 4.69166L15.0546 7.64735C14.929 7.81196 14.9605 8.04725 15.1249 8.17304C15.2904 8.29883 15.5248 8.26679 15.6508 8.10255L18.0993 4.89637C18.2128 4.7475 18.1993 4.53748 18.0671 4.40455C17.5763 3.91053 17.342 3.42457 17.4694 3.16749C17.6792 2.74836 18.9932 2.67072 20.6565 3.49689C21.9181 4.12623 22.6586 4.93409 22.8326 5.45557C22.886 5.61524 22.8882 5.74579 22.8395 5.84339C22.7106 6.10139 22.1844 6.20612 21.4948 6.10853C21.3113 6.08198 21.1319 6.1977 21.0813 6.37897L20.6913 7.77405C20.6357 7.97346 20.7521 8.18036 20.9513 8.23603C20.9854 8.24555 21.0191 8.25013 21.0528 8.25013C21.2165 8.24994 21.3673 8.14155 21.4135 7.97584L21.7185 6.88563C22.6055 6.94312 23.2526 6.6941 23.5104 6.17884C23.6496 5.9007 23.6613 5.56855 23.5441 5.21808Z" fill="#1F3346"></path><path d="M21.75 9H1.5C0.879639 9 0.375 9.50464 0.375 10.125V11.625C0.375 12.2454 0.879639 12.75 1.5 12.75V13.8605C1.5 16.686 2.76201 19.3032 4.9197 21.0552C4.46116 21.1973 4.125 21.6203 4.125 22.125V22.875C4.125 23.4954 4.62964 24 5.25 24H18C18.6204 24 19.125 23.4954 19.125 22.875V22.125C19.125 21.6203 18.7888 21.1973 18.3303 21.0552C20.488 19.3032 21.75 16.686 21.75 13.8605V12.75C22.3704 12.75 22.875 12.2454 22.875 11.625V10.125C22.875 9.50464 22.3704 9 21.75 9ZM18.375 22.875C18.375 23.0817 18.2069 23.25 18 23.25H5.25C5.04309 23.25 4.875 23.0817 4.875 22.875V22.125C4.875 21.9183 5.04309 21.75 5.25 21.75H18C18.2069 21.75 18.375 21.9183 18.375 22.125V22.875ZM21 13.8605C21 13.9911 20.9937 14.1205 20.9879 14.25H19.125C18.9177 14.25 18.75 14.4179 18.75 14.625C18.75 14.8321 18.9177 15 19.125 15H20.923C20.5981 17.4447 19.2375 19.6281 17.1394 21H6.1106C4.01246 19.6281 2.65189 17.4447 2.32697 15H17.25C17.4573 15 17.625 14.8321 17.625 14.625C17.625 14.4179 17.4573 14.25 17.25 14.25H2.26211C2.25629 14.1205 2.25 13.9911 2.25 13.8605V12.75H21V13.8605ZM22.125 11.625C22.125 11.8317 21.9569 12 21.75 12H1.5C1.29309 12 1.125 11.8317 1.125 11.625V10.125C1.125 9.91827 1.29309 9.75 1.5 9.75H21.75C21.9569 9.75 22.125 9.91827 22.125 10.125V11.625Z" fill="#1F3346"></path><path d="M9.375 2.625C9.58211 2.625 9.75 2.45711 9.75 2.25C9.75 2.04289 9.58211 1.875 9.375 1.875C9.16789 1.875 9 2.04289 9 2.25C9 2.45711 9.16789 2.625 9.375 2.625Z" fill="#1F3346"></path><path d="M10.5 7.5C10.7071 7.5 10.875 7.33211 10.875 7.125C10.875 6.91789 10.7071 6.75 10.5 6.75C10.2929 6.75 10.125 6.91789 10.125 7.125C10.125 7.33211 10.2929 7.5 10.5 7.5Z" fill="#1F3346"></path><path d="M7.21228 7.96216C7.41939 7.96216 7.58728 7.79426 7.58728 7.58716C7.58728 7.38005 7.41939 7.21216 7.21228 7.21216C7.00517 7.21216 6.83728 7.38005 6.83728 7.58716C6.83728 7.79426 7.00517 7.96216 7.21228 7.96216Z" fill="#1F3346"></path><path d="M6.375 4.5H7.34473L7.60986 4.76514C7.68311 4.83838 7.77905 4.875 7.875 4.875C7.97095 4.875 8.06689 4.83838 8.14014 4.76514C8.28662 4.61865 8.28662 4.38135 8.14014 4.23486L7.875 3.96973V3C7.875 1.34583 6.52917 0 4.875 0H3.75C3.54272 0 3.375 0.167908 3.375 0.375V1.5C3.375 3.15417 4.72083 4.5 6.375 4.5ZM4.125 0.75H4.875C6.11572 0.75 7.125 1.75928 7.125 3V3.21973L5.89014 1.98486C5.74365 1.83838 5.50635 1.83838 5.35986 1.98486C5.21338 2.13135 5.21338 2.36865 5.35986 2.51514L6.59473 3.75H6.375C5.13428 3.75 4.125 2.74072 4.125 1.5V0.75Z" fill="#1F3346"></path><path d="M11.9546 5.67041C12.3552 5.67041 12.7317 5.5144 13.0151 5.23114L14.606 3.64014C14.8894 3.35687 15.0454 2.98022 15.0454 2.57941C15.0454 2.17877 14.8894 1.80212 14.606 1.51886C14.3229 1.2356 13.946 1.07959 13.5454 1.07959C13.1448 1.07959 12.7683 1.2356 12.4849 1.51886L10.894 3.10986C10.6106 3.39313 10.4546 3.76978 10.4546 4.17059C10.4546 4.57123 10.6106 4.94788 10.894 5.23114C11.1771 5.5144 11.554 5.67041 11.9546 5.67041ZM13.0151 2.04913C13.1569 1.90759 13.3451 1.82959 13.5454 1.82959C13.7457 1.82959 13.934 1.90759 14.0757 2.04913C14.2174 2.19086 14.2954 2.37909 14.2954 2.57941C14.2954 2.77991 14.2174 2.96814 14.0757 3.10986L13.5454 3.64016L12.4848 2.57952L13.0151 2.04913ZM11.4243 3.64014L11.9546 3.10984L13.0152 4.17048L12.4849 4.70087C12.2014 4.98395 11.7078 4.98395 11.4243 4.70087C11.2826 4.55914 11.2046 4.37091 11.2046 4.17059C11.2046 3.97009 11.2826 3.78186 11.4243 3.64014Z" fill="#1F3346"></path><path d="M1.52748 7.53595L3.70241 8.11347C3.83058 8.14752 3.96059 8.16437 4.08986 8.16437C4.35097 8.16437 4.60841 8.09571 4.84023 7.96131C5.18666 7.76007 5.43422 7.43616 5.53713 7.04889C5.64003 6.66162 5.58583 6.25751 5.38478 5.91089C5.18373 5.56445 4.85963 5.3169 4.47255 5.21417L2.29762 4.63666C1.9109 4.53375 1.50624 4.58777 1.15981 4.78882C0.81337 4.99005 0.565812 5.31415 0.462907 5.70123C0.360001 6.0885 0.4142 6.49262 0.61525 6.83924C0.8163 7.18567 1.1404 7.43323 1.52748 7.53595ZM4.73586 6.28736C4.83656 6.46057 4.86366 6.66272 4.81203 6.85626C4.76076 7.04981 4.63698 7.21204 4.46376 7.31256C4.29054 7.41327 4.08803 7.44037 3.89504 7.38873L3.16994 7.1962L3.55521 5.74646L4.27992 5.93891C4.47365 5.99036 4.63551 6.11414 4.73586 6.28736ZM1.188 5.89368C1.23927 5.70014 1.36305 5.53809 1.53627 5.43756C1.65199 5.37036 1.7809 5.33594 1.91127 5.33594C1.97609 5.33594 2.04091 5.34436 2.105 5.36139L2.83009 5.55393L2.44482 7.00366L1.72011 6.81122C1.52638 6.75977 1.36452 6.63599 1.26418 6.46277C1.16347 6.28955 1.13637 6.0874 1.188 5.89368Z" fill="#1F3346"></path></g><defs><clipPath id="clip0_10_1081"><rect width="24" height="24" fill="white"></rect></clipPath></defs></svg>
