<svg xmlns="http://www.w3.org/2000/svg" width="23" height="23" viewBox="0 0 23 23" fill="none"><g clip-path="url(#clip0_10_1054)"><path d="M9.70312 4.67188H10.4219V5.39062C10.4219 5.58909 10.5828 5.75 10.7812 5.75H12.2188C12.4172 5.75 12.5781 5.58909 12.5781 5.39062V4.67188H13.2969C13.4953 4.67188 13.6562 4.51096 13.6562 4.3125V2.875C13.6562 2.67654 13.4953 2.51562 13.2969 2.51562H12.5781V1.79688C12.5781 1.59841 12.4172 1.4375 12.2188 1.4375H10.7812C10.5828 1.4375 10.4219 1.59841 10.4219 1.79688V2.51562H9.70312C9.50466 2.51562 9.34375 2.67654 9.34375 2.875V4.3125C9.34375 4.51096 9.50466 4.67188 9.70312 4.67188ZM10.0625 3.23438H10.7812C10.9797 3.23438 11.1406 3.07346 11.1406 2.875V2.15625H11.8594V2.875C11.8594 3.07346 12.0203 3.23438 12.2188 3.23438H12.9375V3.95312H12.2188C12.0203 3.95312 11.8594 4.11404 11.8594 4.3125V5.03125H11.1406V4.3125C11.1406 4.11404 10.9797 3.95312 10.7812 3.95312H10.0625V3.23438Z" fill="#1F3346"></path><path d="M10.0625 19.0469C9.86404 19.0469 9.70312 19.2078 9.70312 19.4062V20.125C9.70312 20.3235 9.86404 20.4844 10.0625 20.4844C10.261 20.4844 10.4219 20.3235 10.4219 20.125V19.4062C10.4219 19.2078 10.261 19.0469 10.0625 19.0469Z" fill="#1F3346"></path><path d="M12.9375 19.0469C12.739 19.0469 12.5781 19.2078 12.5781 19.4062V20.125C12.5781 20.3235 12.739 20.4844 12.9375 20.4844C13.136 20.4844 13.2969 20.3235 13.2969 20.125V19.4062C13.2969 19.2078 13.136 19.0469 12.9375 19.0469Z" fill="#1F3346"></path><path d="M7.1875 11.1406H8.98438C9.18284 11.1406 9.34375 10.9797 9.34375 10.7812V8.625C9.34375 8.42654 9.18284 8.26562 8.98438 8.26562H7.1875C6.98904 8.26562 6.82812 8.42654 6.82812 8.625V10.7812C6.82812 10.9797 6.98904 11.1406 7.1875 11.1406ZM7.54688 8.98438H8.625V10.4219H7.54688V8.98438Z" fill="#1F3346"></path><path d="M14.0156 11.1406H15.8125C16.011 11.1406 16.1719 10.9797 16.1719 10.7812V8.625C16.1719 8.42654 16.011 8.26562 15.8125 8.26562H14.0156C13.8172 8.26562 13.6562 8.42654 13.6562 8.625V10.7812C13.6562 10.9797 13.8172 11.1406 14.0156 11.1406ZM14.375 8.98438H15.4531V10.4219H14.375V8.98438Z" fill="#1F3346"></path><path d="M10.4219 11.1406H12.5781C12.7766 11.1406 12.9375 10.9797 12.9375 10.7812V8.625C12.9375 8.42654 12.7766 8.26562 12.5781 8.26562H10.4219C10.2234 8.26562 10.0625 8.42654 10.0625 8.625V10.7812C10.0625 10.9797 10.2234 11.1406 10.4219 11.1406ZM10.7812 8.98438H12.2188V10.4219H10.7812V8.98438Z" fill="#1F3346"></path><path d="M4.3125 14.375H2.15625C1.95779 14.375 1.79688 14.5359 1.79688 14.7344V16.8906C1.79688 17.0891 1.95779 17.25 2.15625 17.25H4.3125C4.51096 17.25 4.67188 17.0891 4.67188 16.8906V14.7344C4.67188 14.5359 4.51096 14.375 4.3125 14.375ZM3.95312 16.5312H2.51562V15.0938H3.95312V16.5312Z" fill="#1F3346"></path><path d="M4.3125 17.9688H2.15625C1.95779 17.9688 1.79688 18.1297 1.79688 18.3281V20.4844C1.79688 20.6828 1.95779 20.8438 2.15625 20.8438H4.3125C4.51096 20.8438 4.67188 20.6828 4.67188 20.4844V18.3281C4.67188 18.1297 4.51096 17.9688 4.3125 17.9688ZM3.95312 20.125H2.51562V18.6875H3.95312V20.125Z" fill="#1F3346"></path><path d="M22.6406 11.5H17.6094V4.3125C17.6094 4.11404 17.4485 3.95312 17.25 3.95312H15.0938V1.07812C15.0938 0.483612 14.6101 0 14.0156 0H8.98438C8.38986 0 7.90625 0.483612 7.90625 1.07812V3.95312H5.75C5.55154 3.95312 5.39062 4.11404 5.39062 4.3125V11.5H0.359375C0.160912 11.5 0 11.6609 0 11.8594V13.2969C0 13.4953 0.160912 13.6562 0.359375 13.6562V22.6406C0.359375 22.8391 0.520287 23 0.71875 23H22.2812C22.4797 23 22.6406 22.8391 22.6406 22.6406V13.6562C22.8391 13.6562 23 13.4953 23 13.2969V11.8594C23 11.6609 22.8391 11.5 22.6406 11.5ZM22.2812 12.2188V12.9375H17.6094V12.2188H22.2812ZM8.625 1.07812C8.625 0.880013 8.78626 0.71875 8.98438 0.71875H14.0156C14.2137 0.71875 14.375 0.880013 14.375 1.07812V6.10938C14.375 6.30749 14.2137 6.46875 14.0156 6.46875H8.98438C8.78626 6.46875 8.625 6.30749 8.625 6.10938V1.07812ZM0.71875 12.2188H5.39062V12.9375H0.71875V12.2188ZM1.07812 13.6562H5.39062V22.2812H1.07812V13.6562ZM6.10938 4.67188H7.90625V6.10938C7.90625 6.70389 8.38986 7.1875 8.98438 7.1875H14.0156C14.6101 7.1875 15.0938 6.70389 15.0938 6.10938V4.67188H16.8906V22.2812H15.4531V17.25H15.8125C16.011 17.25 16.1719 17.0891 16.1719 16.8906V15.4531C16.1719 15.2547 16.011 15.0938 15.8125 15.0938H7.1875C6.98904 15.0938 6.82812 15.2547 6.82812 15.4531V16.8906C6.82812 17.0891 6.98904 17.25 7.1875 17.25H7.54688V22.2812H6.10938V4.67188ZM7.90625 16.5312H7.54688V15.8125H15.4531V16.5312H7.90625ZM8.26562 17.25H11.1406V22.2812H8.26562V17.25ZM11.8594 22.2812V17.25H14.7344V22.2812H11.8594ZM21.9219 22.2812H17.6094V13.6562H21.9219V22.2812Z" fill="#1F3346"></path><path d="M18.6875 17.25H20.8438C21.0422 17.25 21.2031 17.0891 21.2031 16.8906V14.7344C21.2031 14.5359 21.0422 14.375 20.8438 14.375H18.6875C18.489 14.375 18.3281 14.5359 18.3281 14.7344V16.8906C18.3281 17.0891 18.489 17.25 18.6875 17.25ZM19.0469 15.0938H20.4844V16.5312H19.0469V15.0938Z" fill="#1F3346"></path><path d="M18.6875 20.8438H20.8438C21.0422 20.8438 21.2031 20.6828 21.2031 20.4844V18.3281C21.2031 18.1297 21.0422 17.9688 20.8438 17.9688H18.6875C18.489 17.9688 18.3281 18.1297 18.3281 18.3281V20.4844C18.3281 20.6828 18.489 20.8438 18.6875 20.8438ZM19.0469 18.6875H20.4844V20.125H19.0469V18.6875Z" fill="#1F3346"></path><path d="M7.1875 14.0156H15.8125C16.011 14.0156 16.1719 13.8547 16.1719 13.6562V12.2188C16.1719 12.0203 16.011 11.8594 15.8125 11.8594H7.1875C6.98904 11.8594 6.82812 12.0203 6.82812 12.2188V13.6562C6.82812 13.8547 6.98904 14.0156 7.1875 14.0156ZM7.54688 12.5781H15.4531V13.2969H7.54688V12.5781Z" fill="#1F3346"></path></g><defs><clipPath id="clip0_10_1054"><rect width="23" height="23" fill="white"></rect></clipPath></defs></svg>
