<svg xmlns="http://www.w3.org/2000/svg" width="22" height="22" viewBox="0 0 22 22" fill="none"><g clip-path="url(#clip0_10_1068)"><path d="M15.4688 17.9917C15.5601 17.9917 15.6473 17.9555 15.7118 17.891L17.8911 15.7117C17.9562 15.6467 17.9925 15.5583 17.9918 15.4663C17.9911 15.3743 17.9536 15.2864 17.8878 15.2223L13.9857 11.4267C13.7 11.15 13.3065 11.0093 12.9037 11.0427L11.6328 11.1595C11.0213 10.6674 10.1215 10.705 9.55383 11.2725L9.32355 11.5028C9.18927 11.6371 9.18927 11.8546 9.32355 11.9889L9.95264 12.618C10.0869 12.7522 10.3044 12.7522 10.4387 12.618C10.573 12.4837 10.573 12.2661 10.4387 12.1319L10.0528 11.746C10.3936 11.4189 10.9371 11.4231 11.2726 11.7586C11.3448 11.8308 11.4431 11.8677 11.5472 11.8578L12.9628 11.7275C13.1629 11.7106 13.364 11.7812 13.507 11.92L17.1586 15.472L15.4688 17.1619L14.4882 16.1812C14.3539 16.0469 14.1364 16.0469 14.0021 16.1812C13.8678 16.3153 13.8678 16.533 14.0021 16.6673L15.2257 17.891C15.2902 17.9555 15.3774 17.9917 15.4688 17.9917Z" fill="#061C31"></path><path d="M21.8993 21.4132L19.0486 18.5625L19.8368 17.7743C19.9711 17.64 19.9711 17.4225 19.8368 17.2882L19.0486 16.5L19.8368 15.7118C19.9711 15.5775 19.9711 15.36 19.8368 15.2257L10.7986 6.1875L11.302 5.68413C11.5505 5.43555 11.6875 5.10506 11.6875 4.75359C11.6875 4.02782 11.0972 3.4375 10.3714 3.4375C10.0199 3.4375 9.68945 3.57446 9.44087 3.82304L8.42188 4.84204L6.15796 2.57812L6.48946 2.24663C6.73804 1.99805 6.875 1.66756 6.875 1.31609C6.875 0.590317 6.28468 0 5.55891 0C5.20744 0 4.87695 0.136963 4.62837 0.385544L0.385544 4.62837C0.136963 4.87696 0 5.20744 0 5.55891C0 6.28468 0.590317 6.875 1.31609 6.875C1.66756 6.875 1.99804 6.73804 2.24663 6.48946L2.57812 6.15796L4.84204 8.42188L3.82304 9.44087C3.57446 9.68946 3.4375 10.0199 3.4375 10.3714C3.4375 11.0972 4.02782 11.6875 4.75359 11.6875C5.10506 11.6875 5.43554 11.5505 5.68413 11.302L6.1875 10.7986L8.00696 12.618C8.14124 12.7523 8.35876 12.7523 8.49304 12.618C8.62732 12.4838 8.62732 12.2662 8.49304 12.132L8.04858 11.6875L11.6875 8.04858L19.1077 15.4688L18.3195 16.257L16.257 18.3195L15.4688 19.1077L14.6805 18.3195C14.5463 18.1852 14.3287 18.1852 14.1945 18.3195C14.0602 18.4537 14.0602 18.6713 14.1945 18.8055L15.2257 19.8368C15.2928 19.9039 15.3808 19.9375 15.4688 19.9375C15.5567 19.9375 15.6447 19.9039 15.7118 19.8368L16.5 19.0486L17.2882 19.8368C17.3553 19.9039 17.4433 19.9375 17.5312 19.9375C17.6192 19.9375 17.7072 19.9039 17.7743 19.8368L18.5625 19.0486L21.4132 21.8993C21.4803 21.9664 21.5683 22 21.6562 22C21.7442 22 21.8322 21.9664 21.8993 21.8993C22.0336 21.765 22.0336 21.5475 21.8993 21.4132ZM1.31609 6.1875C0.969482 6.1875 0.6875 5.90552 0.6875 5.55891C0.6875 5.39107 0.75296 5.23329 0.871628 5.11446L5.11446 0.871628C5.23329 0.75296 5.39107 0.6875 5.55891 0.6875C5.90552 0.6875 6.1875 0.969482 6.1875 1.31609C6.1875 1.48393 6.12204 1.64171 6.00337 1.76054L1.76054 6.00337C1.64171 6.12204 1.48393 6.1875 1.31609 6.1875ZM3.06421 5.67188L5.67188 3.06421L7.93579 5.32812L5.32812 7.93579L3.06421 5.67188ZM5.19804 10.8159C5.07921 10.9345 4.92143 11 4.75359 11C4.40698 11 4.125 10.718 4.125 10.3714C4.125 10.2036 4.19046 10.0458 4.30913 9.92696L9.92696 4.30913C10.0458 4.19046 10.2036 4.125 10.3714 4.125C10.718 4.125 11 4.40698 11 4.75359C11 4.92143 10.9345 5.07921 10.8159 5.19804L5.19804 10.8159ZM7.5625 11.2014L6.67358 10.3125L10.3125 6.67358L11.2014 7.5625L7.5625 11.2014ZM17.5312 19.1077L16.9861 18.5625L18.5625 16.9861L19.1077 17.5312L17.5312 19.1077Z" fill="#061C31"></path><path d="M13.2908 16.3536C12.9839 16.149 12.7842 15.8261 12.7329 15.4673C13.1052 15.4596 13.4062 15.1556 13.4062 14.7812V13.75C13.4062 13.3708 13.0977 13.0625 12.7188 13.0625H7.21875C6.83958 13.0625 6.53125 13.3708 6.53125 13.75V14.7812C6.53125 15.1556 6.83209 15.4596 7.20459 15.4673C7.15329 15.8263 6.95357 16.1492 6.64673 16.3536C6.35921 16.5453 6.1875 16.8661 6.1875 17.2117V20.9688C6.1875 21.5374 6.65009 22 7.21875 22H12.7188C13.2874 22 13.75 21.5374 13.75 20.9688V17.1875C13.75 17.1739 13.7438 17.1623 13.7423 17.1491C13.7225 16.8281 13.5607 16.5335 13.2908 16.3536ZM13.0625 17.5312V19.5938H9.625V17.5312H13.0625ZM7.21875 13.75H12.7188L12.7191 14.7812H7.21875V13.75ZM12.7188 21.3125H7.21875C7.02925 21.3125 6.875 21.1582 6.875 20.9688V17.2117C6.875 17.0965 6.93224 16.9896 7.02808 16.9257C7.52658 16.5935 7.84297 16.0582 7.89769 15.4688H12.0396C12.0905 16.0131 12.3662 16.509 12.8003 16.8438H9.28125C9.09142 16.8438 8.9375 16.9977 8.9375 17.1875V19.9375C8.9375 20.1273 9.09142 20.2812 9.28125 20.2812H13.0625V20.9688C13.0625 21.1582 12.9084 21.3125 12.7188 21.3125Z" fill="#061C31"></path><path d="M10.6562 18.9062H12.0312C12.2213 18.9062 12.375 18.7523 12.375 18.5625C12.375 18.3727 12.2213 18.2188 12.0312 18.2188H10.6562C10.4664 18.2188 10.3125 18.3727 10.3125 18.5625C10.3125 18.7523 10.4664 18.9062 10.6562 18.9062Z" fill="#061C31"></path></g><defs><clipPath id="clip0_10_1068"><rect width="22" height="22" fill="white"></rect></clipPath></defs></svg>
