<svg xmlns="http://www.w3.org/2000/svg" viewBox="0 0 515 512"><g><g id="Layer_1"><path d="M466,41.9v10.5c-13.2,3.1-23.5,5.4-23.5,5.4-7.9.6-12,4.6-12.6,12.2-.4,4-.4,8-.4,12,0,128.2,0,256.5,0,384.7v10c-11,2.6-18.3.8-25.5-8.5-95.1-124.8-190.9-249.2-286.4-373.8-1.7-2.2-3.6-4.3-7-8.5v346.4c0,24,6.4,30.6,30.7,31.6,3.1.1,6.1,0,9.7,0v9.5H56.3v-8.6c7.8-.9,15.1-1.2,22.3-2.6,11.8-2.3,16.4-7.8,17.6-19.8.3-3.3.2-6.8.2-10.2V83.3c0-24.7-5.3-30.3-30.2-31.9-3.1-.2-6.2-.4-9.7-.5v-9.5h9.3c23.6,0,47.3.3,70.9-.2,7.3,0,11.8,2,16.3,7.9,84.8,110.9,169.8,221.7,254.7,332.6,1.8,2.2,3.5,4.4,6.4,8.1.4-3.8.8-6,.8-8.3,0-101.2,0-202.5,0-303.7,0-17.1-5.3-23.1-22.1-25.4-5.9-.8-11.8-1.1-18.3-1.8v-9.2h9.4c27.4.1,54.8.4,82.2.4Z"></path></g></g></svg>