<svg xmlns="http://www.w3.org/2000/svg" width="60.342" height="48.482" viewBox="0 0 60.342 48.482"><path d="M893.719,246.945a40.117,40.117,0,0,0,.178,8.321,13.453,13.453,0,0,0,.525,2.1,1.244,1.244,0,0,0,1.137.95c1.167.077,2.338.222,3.5.186a2.5,2.5,0,0,0,2.708-2.325,10.454,10.454,0,0,0,.194-3.293c-1.091,0-2.156.04-3.217-.009a4.489,4.489,0,0,1-4-2.507,9.624,9.624,0,0,1-.63-1.736C893.956,248.082,893.851,247.509,893.719,246.945Zm56.063.012c-.029.113-.06.225-.088.338-.178.7-.316,1.419-.542,2.106a4.682,4.682,0,0,1-4.732,3.5c-.954.026-1.908.067-2.851.1a9.362,9.362,0,0,0,.421,4.049,2.229,2.229,0,0,0,2.414,1.342,2.42,2.42,0,0,1,.455.037c.154.008.309,0,.463,0a3.952,3.952,0,0,0-.24-.393c-.028-.037-.121-.025-.185-.036a1.256,1.256,0,0,1,.4-.205,1.916,1.916,0,0,0,.258-.156c.033.081.048.125.068.165a3.16,3.16,0,0,0,.391.708c.056.062.335-.095.517-.123.128-.02.264.019.4.011a.92.92,0,0,0,.407-.071c.231-.141.386-.479.74-.225.021.015.1-.043.15-.078.1-.076.2-.159.319-.257l.063-.632.145,0,.261.5C950.2,254.075,949.852,250.516,949.782,246.957ZM946.251,220.5c.047.55.07,1.083.147,1.607.056.38-.088.517-.441.513-.3,0-.6,0-1,0,.174.437.32.771.442,1.115a.743.743,0,0,0,.935.5c.965-.123,1.943-.156,2.9-.322a20.322,20.322,0,0,0,2.313-.629.485.485,0,0,0,.364-.563,2.427,2.427,0,0,0-2.141-2.213C948.63,220.455,947.486,220.5,946.251,220.5Zm-48.986-.007c-1.175,0-2.269-.03-3.361.009a2.279,2.279,0,0,0-2.144,1.569c-.352.884-.253,1.106.65,1.408a19.336,19.336,0,0,0,5.161.763.384.384,0,0,0,.306-.134c.24-.456.451-.926.718-1.489-.432,0-.722-.011-1.012,0-.425.019-.533-.179-.473-.575C897.183,221.557,897.21,221.065,897.265,220.49Z" transform="translate(-891.571 -210.046)" fill="#c5e1fc"></path><path d="M962.93,172.655c.068.2.525.38-.006.52.026.08.028.2.083.233a3.353,3.353,0,0,0,.512.222c.027,2.016.116,4.086.065,6.152a30.506,30.506,0,0,1-.608,6.267c-.138.586-.287,1.171-.477,1.741a4.09,4.09,0,0,1-3.948,2.957c-5.887.2-11.777.328-17.66.607-6.021.285-12.023-.117-18.032-.279-3.261-.088-6.52-.219-9.781-.317a4.177,4.177,0,0,1-4.293-3.2,19.05,19.05,0,0,1-.889-5.473c-.052-2.672-.038-5.346,0-8.019a9.649,9.649,0,0,1,.362-1.633,3.608,3.608,0,0,0-.036-.566,6.545,6.545,0,0,1,1.037-2.931c.4-.744.764-1.51,1.129-2.274a16.469,16.469,0,0,1,.811-1.766c1.4-2.208,1.985-4.792,3.272-7.039,1.351-2.357,2.813-4.651,4.253-6.957a3.544,3.544,0,0,1,3.029-1.688q4.355-.194,8.709-.4c1.375-.064,2.749-.13,4.123-.189.265-.011.607-.089.431.4-.026.072.1.2.285.3a3.244,3.244,0,0,1,.081-.425,3.635,3.635,0,0,1,.212-.432l.354.654c.066-.584.434-.524.822-.506q6.37.3,12.74.588a3.8,3.8,0,0,1,3.187,1.76,55.48,55.48,0,0,1,5.119,8.8c.288.664.5,1.363.747,2.044a6.4,6.4,0,0,0,.259.59q1.18,2.411,2.366,4.819c.267.539.57,1.059.831,1.6q.53,1.1,1.014,2.227a1.431,1.431,0,0,1,.03.491c0,.135-.05.341.018.4C963.5,172.267,963.168,172.442,962.93,172.655Zm-22.488,1.662c.021.421-.281.416-.513.44-.153-.508-.5-.2-.753-.2l.228.16a1.875,1.875,0,0,1-.524.242,22.7,22.7,0,0,1-3.505.273c-2.312-.137-4.614-.442-6.921-.676-1.2-.121-2.392-.236-3.614-.356.055.363.206.509.545.546,2.627.286,5.252.594,7.878.889a12.74,12.74,0,0,0,2.578.237c3.384-.325,6.758-.752,10.137-1.126.338-.037.491-.185.552-.549l-5.9.589-.194-.459a8.287,8.287,0,0,1,.851-.18c1.69-.182,3.382-.348,5.073-.526.629-.066.75-.192.877-.885l-6.506.655-.2-.479a3.067,3.067,0,0,1,.487-.134q2.929-.3,5.859-.587c.846-.083.925-.142,1.188-1.032-.21.011-.409.014-.605.034-1.338.135-2.675.275-4.013.411-.846.086-1.691.182-2.539.238-.136.009-.284-.17-.427-.263a3.667,3.667,0,0,1,.359-.291c.057-.037.151-.016.228-.024,2.276-.232,4.551-.461,6.826-.7.66-.069.744-.165.893-.87-.173.01-.342.014-.509.031q-2.629.266-5.258.536-3.157.318-6.315.628a11.452,11.452,0,0,1-1.356.076c-.429-.01-.855-.119-1.284-.128-.387-.009-.677-.055-.589-.6-.192.368-.37.525-.579.067l-.09.407-10.242-1.031-.047.108c.259.224.153.711.678.758,1.509.134,3.02.26,4.519.465a10.242,10.242,0,0,1,3.343.519c.095.047.249-.043.374-.039.5.015,1,.042,1.493.064l-.127.668-.486-.57a2.231,2.231,0,0,1-.837.279c-2.2-.187-4.4-.422-6.594-.639-.527-.052-1.054-.095-1.641-.147.259.538.385,1,1.08,1.047,1.988.144,3.97.37,5.953.581a4.122,4.122,0,0,1,.77.237l-.012.15a1.632,1.632,0,0,1-.587.2c-.94-.07-1.876-.184-2.814-.279-1.166-.118-2.333-.233-3.513-.351.183.757.238.816.878.883,1.983.206,3.964.441,5.951.6,2.194.179,4.372.653,6.6.31C938.5,174.385,939.476,174.384,940.442,174.317Zm-19.182-13.2a1.04,1.04,0,0,1,.363-.143c.4-.024.8-.009,1.194,0,4.606.063,9.213.173,13.819.178,3.91,0,7.821-.113,11.731-.176.268,0,.565-.079.651.325.011.052.289.113.4.065a3.324,3.324,0,0,1,1.463-.445c1.576.023,3.153-.029,4.73-.053.159,0,.318-.016.517-.027-.079-.164-.122-.263-.171-.357-1.277-2.435-2.568-4.863-3.829-7.306a3.715,3.715,0,0,0-3.429-2.12c-2.7-.1-5.405-.232-8.108-.343-1.76-.073-3.524-.231-5.281-.18-4.233.123-8.463.354-12.694.526a3.674,3.674,0,0,0-3.356,2.086c-1.247,2.4-2.511,4.788-3.766,7.182-.082.157-.151.32-.255.544.23,0,.381,0,.532,0,1.608.022,3.215.04,4.823.074A3.282,3.282,0,0,1,921.26,161.114Zm13.931,26.421h5.378c1.993,0,3.987.008,5.98,0a1.423,1.423,0,0,0,1.4-1.9,1.444,1.444,0,0,0-1.511-.983q-11.265,0-22.531,0a2.509,2.509,0,0,0-.278.007,1.437,1.437,0,0,0-1.236,1.817,1.4,1.4,0,0,0,1.534,1.063Q929.559,187.537,935.191,187.535Zm-12.878-13.213a1.243,1.243,0,0,0-.056-.186c-.8-1.46-1.607-2.921-2.425-4.373a.667.667,0,0,0-.381-.281q-3.791-.96-7.59-1.888c-.112-.028-.343.042-.372.121-.342.921-.668,1.848-.97,2.783a.521.521,0,0,0,.362.662,10.019,10.019,0,0,0,1.153.476c2.36.665,4.721,1.322,7.091,1.953C920.165,173.867,921.223,174.074,922.313,174.322Zm26.708-.021c.2-.032.316-.044.432-.072,1.817-.428,3.646-.809,5.445-1.3s3.572-1.073,5.339-1.664c.674-.225.758-.414.56-1.1-.227-.782-.555-1.533-.829-2.3-.105-.3-.269-.332-.566-.257-2.468.623-4.942,1.221-7.409,1.847a.919.919,0,0,0-.509.4c-.6,1.041-1.179,2.1-1.761,3.153C949.5,173.416,949.277,173.831,949.021,174.3Z" transform="translate(-905.501 -148.466)" fill="#c5e1fc"></path><path d="M905.629,403.14c.132.564.238,1.137.4,1.691a9.621,9.621,0,0,0,.63,1.736,4.488,4.488,0,0,0,4,2.507c1.061.049,2.126.009,3.217.009a10.454,10.454,0,0,1-.194,3.293,2.5,2.5,0,0,1-2.708,2.325c-1.165.035-2.335-.109-3.5-.186a1.245,1.245,0,0,1-1.137-.95,13.458,13.458,0,0,1-.525-2.1A40.117,40.117,0,0,1,905.629,403.14Z" transform="translate(-903.481 -366.241)" fill="#c5e1fc"></path><path d="M1244.435,403.222c.07,3.559.417,7.118-.766,10.68l-.261-.5-.146,0c-.022.228-.045.456-.063.632-.121.1-.217.181-.319.257-.046.035-.129.093-.15.078-.354-.254-.509.084-.74.225a.919.919,0,0,1-.407.071c-.131.008-.268-.031-.4-.011-.181.028-.46.185-.517.123a3.171,3.171,0,0,1-.391-.708c-.021-.041-.035-.084-.068-.165a1.909,1.909,0,0,1-.258.156,1.255,1.255,0,0,0-.4.205c.063.011.156,0,.184.036a3.98,3.98,0,0,1,.24.393c-.155,0-.309,0-.463,0a2.418,2.418,0,0,0-.454-.037,2.229,2.229,0,0,1-2.414-1.342,9.362,9.362,0,0,1-.421-4.049c.943-.034,1.9-.075,2.851-.1a4.682,4.682,0,0,0,4.732-3.5c.226-.687.364-1.4.542-2.106C1244.376,403.447,1244.406,403.335,1244.435,403.222Z" transform="translate(-1186.224 -366.311)" fill="#c5e1fc"></path><path d="M1261.332,220.511c1.235,0,2.379-.043,3.518.012a2.427,2.427,0,0,1,2.141,2.213.485.485,0,0,1-.364.563,20.3,20.3,0,0,1-2.313.629c-.956.166-1.934.2-2.9.322a.743.743,0,0,1-.935-.5c-.121-.344-.267-.678-.442-1.115.4,0,.7,0,1,0,.354,0,.5-.133.441-.513C1261.4,221.594,1261.379,221.061,1261.332,220.511Z" transform="translate(-1206.651 -210.059)" fill="#c5e1fc"></path><path d="M897.265,220.49c-.055.574-.082,1.067-.155,1.553-.06.4.048.594.473.575.289-.013.58,0,1.012,0-.267.563-.479,1.033-.718,1.489a.384.384,0,0,1-.306.134,19.336,19.336,0,0,1-5.161-.763c-.9-.3-1-.525-.65-1.408A2.279,2.279,0,0,1,893.9,220.5C895,220.461,896.09,220.49,897.265,220.49Z" transform="translate(-891.571 -210.046)" fill="#c5e1fc"></path><path d="M1105.648,308.436v-.551l.915.183.438-.333.117.109-.043.474Z" transform="translate(-1074.631 -284.658)" fill="#c5e1fc"></path><path d="M1084.834,308.9h1.245l.072.146c-.159.115-.312.317-.477.327a2.352,2.352,0,0,1-.834-.157C1084.8,309.2,1084.834,308.958,1084.834,308.9Z" transform="translate(-1056.821 -285.654)" fill="#c5e1fc"></path><path d="M1105.361,319.634a4.769,4.769,0,0,1-.721.376c-.092.031-.253-.088-.355-.172a.259.259,0,0,1,0-.233,1.037,1.037,0,0,1,.45-.129A3.254,3.254,0,0,1,1105.361,319.634Z" transform="translate(-1073.441 -294.698)" fill="#c5e1fc"></path><path d="M1124.084,317.384l1.063-.077C1124.77,317.9,1124.77,317.9,1124.084,317.384Z" transform="translate(-1090.396 -292.844)" fill="#c5e1fc"></path><path d="M1081.326,319.1v-.273l.662-.1.116.557-.791-.2Z" transform="translate(-1053.822 -294.058)" fill="#c5e1fc"></path><path d="M1117.913,317.619l.3.513h-.839l-.042-.1Z" transform="translate(-1084.623 -293.111)" fill="#c5e1fc"></path><path d="M1125.335,306.586l.51-.387.144.088c-.024.175.011.422-.089.5s-.336,0-.513-.008Z" transform="translate(-1091.465 -283.345)" fill="#c5e1fc"></path><path d="M1097.005,319.936l.6-.062c-.05.224-.048.526-.136.555C1097.051,320.566,1097.11,320.155,1097.005,319.936Z" transform="translate(-1067.24 -295.039)" fill="#c5e1fc"></path><path d="M1095.684,310.123c.079-.057.219-.17.371-.265a2.4,2.4,0,0,1,.312-.142,1.022,1.022,0,0,1,.135.392c0,.059-.215.151-.324.141A2.4,2.4,0,0,1,1095.684,310.123Z" transform="translate(-1066.11 -286.353)" fill="#c5e1fc"></path><path d="M1089.568,319.661l.556-.039v.536l-.588-.32Z" transform="translate(-1060.853 -294.824)" fill="#c5e1fc"></path><path d="M1112.6,319.163v-.553l.432-.037v.544Z" transform="translate(-1080.574 -293.927)" fill="#c5e1fc"></path></svg>
