<svg xmlns="http://www.w3.org/2000/svg" width="71.943" height="70.119" viewBox="0 0 71.943 70.119"><g transform="translate(0.5 0.5)"><path d="M838.3-90.087c2.37,2.182,4.785,4.231,3.4,7.61a6.515,6.515,0,0,1-6.323,4.386,7.229,7.229,0,0,1-6.83,6.974,7.109,7.109,0,0,1-6.757,6.754c-1.687,7.023-5.731,8.516-11.251,4.156-5.159,3.527-9.823,1.463-10.509-4.65-4.714-1.2-6.273-2.756-6.887-6.923-4.06-.471-6.366-2.764-6.883-6.91a6.81,6.81,0,0,1-6.33-4.468c-1.16-2.73.326-4.8,2.473-6.636-4.686-4.891-6.81-10.6-5.834-17.287a19.3,19.3,0,0,1,6.3-11.707c6.517-5.977,18.324-7.723,27.631,1.065.986-1.062,1.943-2.179,2.987-3.207a19.68,19.68,0,0,1,28.062-.115,19.7,19.7,0,0,1-.156,27.939C840.435-92.131,839.441-91.2,838.3-90.087Zm-2.85.114c1.723-1.661,3.189-2.97,4.536-4.391a17.792,17.792,0,0,0-.329-24.968,17.751,17.751,0,0,0-24.832-.274c-4.219,4.03-8.287,8.218-12.391,12.366-1.644,1.662-1.657,3.172-.027,4.826,3.846,3.9,7.756,7.739,11.6,11.644,1.07,1.087,1.8.8,2.571-.291a5.926,5.926,0,0,0-.67-7.684c-1.77-1.83-3.653-3.551-5.381-5.22l3.584-3.54c1.671,1.587,3.293,3.347,5.137,4.834a12.088,12.088,0,0,0,15.066.327,3.7,3.7,0,0,1,1.02-.7,1.245,1.245,0,0,1,1.077.2,1.179,1.179,0,0,1,0,1.105,4.448,4.448,0,0,1-1.193,1.052,14.412,14.412,0,0,1-18.241-1.38c-.818-.781-1.577-1.626-2.423-2.373-.222-.2-.67-.137-1.015-.194.076.349.037.805.247,1.03,1.137,1.218,2.369,2.347,3.507,3.565a7.99,7.99,0,0,1,1.031,9.733c-1.655,2.666-3.562,2.921-5.764.732q-5.637-5.6-11.242-11.242c-2.652-2.667-2.665-5.291-.048-7.94,2.506-2.538,5.034-5.055,7.544-7.573-3.227-4.3-10.029-6.626-16.207-5.211a17.55,17.55,0,0,0-13.8,13.266c-1.726,6.473.1,12.2,4.859,17.047,2.176-1.513,4.341-1.88,6.515-.286,1.939,1.422,3.31,3.213,3.185,5.738a7.23,7.23,0,0,1,6.971,6.8c4.266.748,5.746,2.227,6.882,6.886,6.1.882,8.029,5.016,4.852,10.429.111.133.216.278.339.4,2.082,2.138,3.5,2.212,5.458.287,2.269-2.23,2.291-3.484.089-5.7-2.35-2.366-4.738-4.7-7.026-7.12-.425-.45-.458-1.269-.672-1.918.647.184,1.478.173,1.91.583,2.505,2.376,4.905,4.862,7.362,7.289,1.956,1.932,3.3,1.89,5.319-.113s2.08-3.416.193-5.331c-2.466-2.5-4.992-4.947-7.413-7.491-.38-.4-.344-1.192-.5-1.8.6.153,1.381.117,1.772.49,2.584,2.466,5.074,5.03,7.616,7.541,1.845,1.823,3.206,1.706,5.317-.4,1.818-1.812,1.886-3.313.162-5.068-2.462-2.506-4.989-4.95-7.4-7.5-.415-.438-.416-1.269-.609-1.919.646.2,1.471.208,1.908.625,2.626,2.508,5.133,5.141,7.741,7.667,1.6,1.554,3.04,1.352,4.924-.529s2.064-3.309.525-4.929C838.017-87.7,836.826-88.7,835.453-89.973Zm-49.026,9.311c.951-.814,2.23-1.8,3.382-2.917,2.03-1.968,2.014-3.363.076-5.32-2.2-2.219-3.461-2.216-5.712.015-.423.419-.835.85-1.268,1.259-1.07,1.01-1.836,2.2-1.062,3.635A5.73,5.73,0,0,0,786.427-80.662ZM806.774-59.93c1.218-1.058,2.487-2.064,3.644-3.185,1.909-1.85,1.89-3.292.054-5.184-2.208-2.276-3.532-2.273-5.819.014-.421.421-.827.858-1.268,1.257a3.083,3.083,0,0,0-1.01,3.682A6.981,6.981,0,0,0,806.774-59.93Zm-5.731-16.908c-2.054-.032-5.842,3.683-5.772,5.456a2.807,2.807,0,0,0,.46,1.51c1.828,2.419,3.921,4.339,6.867.918a14.441,14.441,0,0,1,1.134-1.138c1.106-1.027,1.711-2.305.948-3.67A5.488,5.488,0,0,0,801.043-76.838Zm-7.724-6.976c-.932.788-2.218,1.764-3.372,2.876-2.094,2.021-2.066,3.393-.033,5.429,2.137,2.14,3.381,2.134,5.569-.027.466-.46.909-.944,1.389-1.388,1.11-1.025,1.718-2.295.958-3.666A5.745,5.745,0,0,0,793.32-83.815Z" transform="translate(-776.336 126.868)" fill="#c5e1fc" stroke="#c5e1fc" stroke-width="1"></path></g></svg>
