<svg xmlns="http://www.w3.org/2000/svg" width="91.737" height="95.776" viewBox="0 0 91.737 95.776"><g transform="translate(-109.386 -172.492)"><path d="M109.386,257.888c1.271-2.221,1.271-2.221,7.827-2.929v-2.743q0-18.229,0-36.458c.006-5.767,2.612-8.4,8.382-8.411,11.364-.026,22.729-.008,34.093-.008h3.351v-3.9h-9.305c-2.643,0-5.287.048-7.929-.015-3.349-.08-5.3-1.925-5.365-5.229q-.136-6.6,0-13.208c.065-3.162,1.965-5.176,5.126-5.2q15.724-.128,31.45,0a4.775,4.775,0,0,1,5.023,4.775c.18,4.66.163,9.334.018,14-.083,2.66-1.957,4.839-4.42,4.743-2.968-.116-4.385,1.65-6.243,3.764a21.019,21.019,0,0,0,2.195.261c4.14.022,8.283-.062,12.421.037,4.771.114,7.5,2.908,7.515,7.672.037,12.329.014,24.658.014,36.987V255.2c1.653,0,3.038-.071,4.412.015,2.8.175,4.03,2.479,2.5,4.827a27.219,27.219,0,0,1-4.178,5.421,7.26,7.26,0,0,1-4.452,1.772c-24.314.107-48.629.072-72.944.082a5.849,5.849,0,0,1-5.175-2.623c-1.434-2.1-2.884-4.182-4.327-6.273ZM163.074,209.5c-.889-.052-1.661-.136-2.434-.137q-17.438-.013-34.876,0c-4.8,0-6.523,1.713-6.529,6.519q-.023,18.223,0,36.447c0,.857.079,1.713.135,2.857h2.752c6.165,0,12.33-.044,18.495.043,1.049.014,2.49.257,3.067.957,2.441,2.964,5.484,3.642,9.115,3.351,2.976-.24,5.988.019,8.978-.091a3.706,3.706,0,0,0,2.553-.922c2.444-3.179,5.668-3.572,9.365-3.395,4.921.235,9.861.058,14.793.058h2.827c.1-.789.195-1.219.195-1.65.009-12.853.038-25.706-.009-38.559-.014-3.737-1.974-5.564-5.829-5.605-4.579-.048-9.164.113-13.737-.065a5.947,5.947,0,0,0-5.282,2.227,22.5,22.5,0,0,1-3.15,2.546Zm2.213-.136.753.382c2.162-2.27,4.226-4.649,6.536-6.758a6.7,6.7,0,0,1,3.619-1.552c2.909-.3,3.9-1.11,3.929-4.1q.062-5.68,0-11.361c-.029-3.113-1.049-4.163-4.094-4.17q-14.8-.033-29.6,0c-2.962.006-3.984,1-4.024,3.95q-.078,5.811,0,11.625c.038,3.032.977,3.962,3.96,3.978,5.374.028,10.752.107,16.122-.038,2.261-.061,2.988.766,2.827,2.9C165.184,205.931,165.287,207.652,165.287,209.365Zm-54.262,48.122c1.4,1.961,2.42,3.16,3.181,4.506,1.476,2.61,3.588,3.34,6.557,3.326,23.411-.115,46.823-.062,70.235-.066,3.342,0,7.518-4.12,7.819-8.03h-2.841c-7.745,0-15.493.1-23.235-.056a8.549,8.549,0,0,0-6.8,2.561,7.166,7.166,0,0,1-4.328,1.748c-3.946.237-7.921-.035-11.875.125-2.189.089-3.959-.366-5.337-2.114-1.482-1.879-3.407-2.363-5.794-2.32-8.007.143-16.018.048-24.027.063C113.664,257.233,112.751,257.359,111.024,257.487Z" transform="translate(0 -3.389)" fill="#21234a"></path><path d="M254.171,224.252c5.545.185,10.575,5.239,10.594,10.222,0,.6-.629,1.211-.966,1.816-.348-.523-.9-1.006-1.011-1.576-1.036-5.236-3.151-7.366-8.361-8.463-.621-.131-1.13-.79-1.691-1.2Z" transform="translate(-67.168 -24.253)" fill="#21234a"></path><path d="M160.106,181.127c.13-4.492,4-8.457,8.032-8.634a5.769,5.769,0,0,1,1.979.709c-.558.4-1.067,1.05-1.681,1.176-3.6.737-5.745,2.767-6.3,6.467-.085.562-.683,1.047-1.043,1.568Z" transform="translate(-23.765 0)" fill="#21234a"></path><path d="M118.24,348.056c-1.752-1.086-3.556-2.088-5.2-3.3-.418-.309-.33-1.3-.474-1.98a11,11,0,0,1,1.773.521c1.545.744,3.073,1.528,4.572,2.362a12.889,12.889,0,0,1,1.611,1.25Z" transform="translate(-1.49 -79.787)" fill="#21234a"></path><path d="M274.3,265.642l-1.595,2.294a6.993,6.993,0,0,1-.946-2.34,7.37,7.37,0,0,1,.86-2.426Z" transform="translate(-76.08 -42.488)" fill="#21234a"></path><path d="M274.3,277.247l-1.64,2.567a3.6,3.6,0,0,1,0-4.767Z" transform="translate(-76.08 -48.053)" fill="#21234a"></path><path d="M274.235,253.649l-1.434,2.395c-.369-.753-1.045-1.512-1.027-2.255a7.689,7.689,0,0,1,1.023-2.531Z" transform="translate(-76.088 -36.907)" fill="#21234a"></path><path d="M186.282,261.389c3.517,2.687,7.259,4.929,10.2,7.952,3.412,3.513,1.875,8.893-2.629,10.864a7.943,7.943,0,0,1-3.063.63c-8.893.048-17.786.033-26.678.024-3.387,0-5.58-1.772-6.964-4.749a5.915,5.915,0,0,1,1.732-7.4c3.03-2.605,6.438-4.77,9.786-7.2-2.606-7.325-1.606-13.01,3.13-16.581a9.362,9.362,0,0,1,11.3-.017C187.856,248.482,188.883,254.283,186.282,261.389ZM177.473,278.9v-.022c4.485,0,8.971.049,13.454-.02a5.372,5.372,0,0,0,4.935-3.4,4.08,4.08,0,0,0-1.2-5.244,104.451,104.451,0,0,0-9.151-6.054c-.429-.262-1.463.091-2.014.461-4.446,2.987-7.65,2.976-12.15-.034a2.465,2.465,0,0,0-2.02-.4,74.847,74.847,0,0,0-8.411,5.31c-1.722,1.325-3.086,3.209-1.949,5.751a5.776,5.776,0,0,0,5.836,3.664C169.03,278.867,173.252,278.9,177.473,278.9Zm-8.819-24.336a42.717,42.717,0,0,0,1.867,5.653,7.5,7.5,0,0,0,6.9,4.544c3.2.016,5.435-1.769,6.97-4.467a11.1,11.1,0,0,0-.892-12.164c-3.24-4.084-8.935-4.221-11.967,0C170.153,250.038,169.545,252.5,168.654,254.561Z" transform="translate(-22.078 -33.05)" fill="#21234a"></path><path d="M134.141,252.829l-1.383,2.277c-.357-.771-1.02-1.553-.991-2.309a7.444,7.444,0,0,1,1.083-2.487Z" transform="translate(-10.487 -36.463)" fill="#21234a"></path><path d="M134.208,264.76,132.685,267a7.045,7.045,0,0,1-.935-2.363,7.209,7.209,0,0,1,.893-2.4Z" transform="translate(-10.479 -42.049)" fill="#21234a"></path><path d="M134.209,276.672l-1.538,2.208a7.071,7.071,0,0,1-.921-2.372,7.153,7.153,0,0,1,.908-2.387Z" transform="translate(-10.479 -47.619)" fill="#21234a"></path><path d="M205.8,211.711c-1.847,0-3.7.086-5.538-.047-.606-.044-1.172-.646-1.757-.993.538-.333,1.071-.945,1.616-.956q5.934-.121,11.872.011c.506.012,1,.691,1.494,1.061-.539.308-1.066.851-1.62.881C209.845,211.774,207.819,211.71,205.8,211.711Z" transform="translate(-41.756 -17.414)" fill="#21234a"></path><path d="M206.1,192.628c-2.026,0-4.057.071-6.076-.048-.53-.031-1.026-.65-1.537-1,.517-.338,1.028-.959,1.552-.969q5.944-.124,11.893,0c.521.011,1.028.642,1.542.987-.519.343-1.022.948-1.561.982C209.986,192.7,208.043,192.627,206.1,192.628Z" transform="translate(-41.751 -8.461)" fill="#21234a"></path><path d="M200.216,201.441a5.766,5.766,0,0,1-1.85.756c-3.151.078-6.307.093-9.456-.013-.6-.02-1.171-.69-1.755-1.06.555-.291,1.105-.82,1.668-.834,3.238-.08,6.48-.062,9.72-.012a5.527,5.527,0,0,1,1.576.525Z" transform="translate(-36.439 -12.999)" fill="#21234a"></path><path d="M217.52,202.174a2.915,2.915,0,0,1-1.039-.021c-.709-.293-1.374-.694-2.057-1.051a11.408,11.408,0,0,1,2.134-.889,5.741,5.741,0,0,1,2.341,0,9.824,9.824,0,0,1,2.039.966,20.9,20.9,0,0,1-2.116.968A4.245,4.245,0,0,1,217.52,202.174Z" transform="translate(-49.217 -12.934)" fill="#21234a"></path><path d="M189.374,212.333l-2.221-1.61a7.359,7.359,0,0,1,2.367-.915c.692-.015,1.4.593,2.1.925Z" transform="translate(-36.439 -17.485)" fill="#21234a"></path><path d="M189.355,193.169l-2.2-1.4a7.937,7.937,0,0,1,2.466-1.05c.646-.042,1.338.626,2.01.978Z" transform="translate(-36.438 -8.54)" fill="#21234a"></path></g></svg>
