<svg xmlns="http://www.w3.org/2000/svg" width="58.7" height="82.966" viewBox="0 0 58.7 82.966"><path d="M1029.769-42.841c.852,0,1.622,0,2.392,0a1.954,1.954,0,0,1,2.126,2.01c.049,1.473.049,2.95,0,4.422a1.929,1.929,0,0,1-2.018,1.947q-12.786.007-25.571-.006c-1.2,0-2.4.013-3.6.014q-12.624,0-25.248,0a2.011,2.011,0,0,1-2.219-2.237q-.012-1.915,0-3.83a2.037,2.037,0,0,1,2.307-2.319c.719,0,1.439-.016,2.157.007.361.011.472-.121.455-.47-.025-.5-.008-1.007-.008-1.51q0-18.045,0-36.091a4.838,4.838,0,0,1,.6-2.739c-.543,0-.976,0-1.408,0a2.612,2.612,0,0,1-2.736-1.982,3.052,3.052,0,0,1-.12-.9c-.01-1.888.051-3.778-.016-5.664a3.2,3.2,0,0,1,3.417-3.383q17.829.007,35.658,0,6.985,0,13.97,0a7.027,7.027,0,0,1,1.176.1,2.3,2.3,0,0,1,1.983,2.323c.016,2.247.02,4.494,0,6.741a2.671,2.671,0,0,1-2.817,2.748h-1.118c.981,1.644.619,3.363.631,5.026.038,5.3.017,10.61.017,15.915q0,9.681,0,19.362C1029.769-43.208,1029.769-43.065,1029.769-42.841ZM1009.9-36.754c.012-.124.027-.209.027-.3,0-3.685.016-7.369-.008-11.054a3.722,3.722,0,0,0-2.775-3.626,12.565,12.565,0,0,0-2.881-.224A3.99,3.99,0,0,0,1000-47.719q-.008,5.227,0,10.453c0,.157.015.315.024.511Zm-1.15-37.667h-.012c0-.646.006-1.293,0-1.94a2.594,2.594,0,0,0-2.616-2.573c-.519.031-1.041.005-1.562.005a2.384,2.384,0,0,0-2.646,2.614c-.013,1.22-.02,2.441-.029,3.662a2.387,2.387,0,0,0,2.644,2.665c.569-.057,1.148-.008,1.723-.009a2.484,2.484,0,0,0,2.5-2.538C1008.745-73.164,1008.752-73.793,1008.752-74.421Zm-18.916.044h0c0-.665.015-1.331,0-2a2.427,2.427,0,0,0-2.62-2.558c-.521,0-1.046.039-1.563-.005A2.6,2.6,0,0,0,983-76.329c.007,1.312-.017,2.625,0,3.937a2.425,2.425,0,0,0,2.467,2.4c.611,0,1.226-.046,1.833.01a2.357,2.357,0,0,0,2.532-2.5C989.828-73.119,989.836-73.748,989.836-74.377Zm.008,13.429h-.01c0-.7.019-1.4,0-2.1a2.161,2.161,0,0,0-2.273-2.2q-1.05,0-2.1,0A2.313,2.313,0,0,0,983-62.8c0,1.167.024,2.334-.01,3.5a2.143,2.143,0,0,0,1.708,2.336,14.456,14.456,0,0,0,3.574-.012,2.012,2.012,0,0,0,1.575-2.147C989.833-59.728,989.844-60.338,989.844-60.948Zm37.262-13.4h-.007c0-.737.025-1.475-.006-2.211a2.356,2.356,0,0,0-2.509-2.374,8.342,8.342,0,0,1-1.508,0,2.063,2.063,0,0,0-2.349,2.044,41.658,41.658,0,0,0-.045,4.789,2.058,2.058,0,0,0,2.432,2.114c.5-.041,1.006-.006,1.509-.007a2.25,2.25,0,0,0,2.479-2.414C1027.122-73.058,1027.106-73.705,1027.106-74.352Zm-34.465-.04h0c0,.737-.023,1.474.005,2.21A2.143,2.143,0,0,0,994.942-70c.413,0,.827.007,1.24,0a6.29,6.29,0,0,0,1.336-.072,2.263,2.263,0,0,0,1.583-2.315c.028-1.365.035-2.732,0-4.1a2.319,2.319,0,0,0-2.528-2.447h-1.455a2.282,2.282,0,0,0-2.47,2.38C992.62-75.831,992.641-75.111,992.641-74.392Zm25.17.025h0c0-.754,0-1.509,0-2.263a2.325,2.325,0,0,0-2.391-2.308c-.642.052-1.293.011-1.939.007a1.82,1.82,0,0,0-1.386.606,2.74,2.74,0,0,0-.71,1.922q-.028,2.155-.023,4.31a2.1,2.1,0,0,0,2.083,2.1c.7.007,1.4,0,2.1,0a2.157,2.157,0,0,0,2.258-2.162C1017.832-72.894,1017.812-73.631,1017.812-74.368Zm-9.07,13.345c0-.611,0-1.222,0-1.833a2.305,2.305,0,0,0-2.417-2.4c-.719,0-1.438,0-2.157,0a2.116,2.116,0,0,0-2.249,2.215q-.02,2.022,0,4.044a2.08,2.08,0,0,0,2.15,2.144q1.159.018,2.318,0a2.3,2.3,0,0,0,2.357-2.4C1008.744-59.837,1008.742-60.43,1008.741-61.023Zm-25.733,13.35c0,.647-.007,1.294,0,1.942a2.3,2.3,0,0,0,2.339,2.368c.719.018,1.438.012,2.158,0a2.215,2.215,0,0,0,2.321-2.246c.037-1.366.026-2.733,0-4.1a1.749,1.749,0,0,0-1.579-1.82,24.979,24.979,0,0,0-3.494,0,1.819,1.819,0,0,0-1.745,1.965C983-48.932,983.008-48.3,983.009-47.673ZM1020.7-61.019h-.06c0,.664-.015,1.329,0,1.993a1.982,1.982,0,0,0,1.8,2.168,24.024,24.024,0,0,0,2.69,0,1.97,1.97,0,0,0,1.934-1.758c.042-1.559.051-3.121,0-4.68a2.028,2.028,0,0,0-2.1-1.954c-.736-.009-1.472,0-2.208,0a1.851,1.851,0,0,0-2.047,1.763A24.594,24.594,0,0,0,1020.7-61.019Zm-28.067-.011h0c0,.7-.019,1.4,0,2.1a2.034,2.034,0,0,0,2.137,2.081c.719.006,1.438,0,2.158,0a2.021,2.021,0,0,0,2.155-2.062q.057-2.1.005-4.206a2.088,2.088,0,0,0-2.253-2.146c-.644.048-1.294.011-1.941.006a2.063,2.063,0,0,0-2.264,2.175C992.618-62.4,992.635-61.713,992.635-61.03Zm25.172,0h.013q0-1.024,0-2.049c0-.072-.006-.144-.011-.215a2.059,2.059,0,0,0-2.092-1.958c-.7.006-1.4,0-2.1,0a1.975,1.975,0,0,0-2.207,2.036c-.053,1.454-.055,2.913-.012,4.367a1.972,1.972,0,0,0,2.137,2.006c.755,0,1.51.008,2.266,0a2,2,0,0,0,2-1.92C1017.833-59.521,1017.807-60.277,1017.807-61.032Zm9.3,13.373c0-.683.018-1.367,0-2.049a1.749,1.749,0,0,0-1.725-1.841,28.9,28.9,0,0,0-3.122-.014,1.509,1.509,0,0,0-1.539,1.5,46.021,46.021,0,0,0-.043,4.624c.076,1.441.9,2.087,2.347,2.085.593,0,1.186,0,1.779,0a2.19,2.19,0,0,0,2.3-2.25C1027.127-46.292,1027.107-46.976,1027.107-47.659Zm-22.9-42.892c-.165-.178-.237-.257-.31-.334a3.462,3.462,0,0,0-5.527.608,4.6,4.6,0,0,0-.506,3.127,3.268,3.268,0,0,0,2.388,2.9,3.34,3.34,0,0,0,3.594-.969,4.136,4.136,0,0,0,.953-3.419,14.157,14.157,0,0,0-.451-1.817h2.285v6.239h1.425v-6.273h2.231v-1.169H1004.2Zm-12.742-1.111v7.438c1.16.155,1.16.155,1.16-.927v-2.308h3.174V-84.2h1.35v-7.449h-1.379v2.719H992.62v-2.733Zm19.033-.011c0,2.441,0,4.826.017,7.21,0,.1.249.27.387.275.841.033,1.684.03,2.526.037.461,0,.921,0,1.405,0v-1.416h-2.925V-87.5h2.731v-1.4h-2.726v-1.6h2.906v-1.175Zm9.566,6.109H1017.3V-91.65h-1.676a.587.587,0,0,0-.046.136c-.006,2.316,0,4.632-.02,6.948,0,.369.188.4.474.4.988-.008,1.976,0,2.964,0C1020.287-84.172,1020.287-84.172,1020.061-85.565ZM996.682-51.514c5.668-3.7,11.217-3.707,16.809.081l.425-.383c-4.446-4.122-13.137-4.142-17.637-.031Z" transform="translate(-975.623 117.418)" fill="#c5e1fc"></path><path d="M1089.742-141.882c-.341-.628-.633-1.12-.879-1.634a.921.921,0,0,0-.9-.606c-.6-.014-1.2-.123-1.9-.2.507-.54.93-1.024,1.391-1.469a.755.755,0,0,0,.214-.82c-.156-.62-.286-1.248-.446-1.956.681.315,1.276.563,1.845.862a.723.723,0,0,0,.836-.046c.522-.341,1.076-.632,1.725-1.006-.083.676-.131,1.255-.233,1.825a.893.893,0,0,0,.326.99c.478.372.907.807,1.449,1.3-.734.149-1.368.306-2.011.4a.7.7,0,0,0-.608.505C1090.314-143.163,1090.053-142.595,1089.742-141.882Z" transform="translate(-1049.072 152.789)" fill="#c5e1fc"></path><path d="M1026.392-149.052c-.119.684-.182,1.292-.34,1.875a.837.837,0,0,0,.268.951c.452.406.891.826,1.335,1.24l-.071.145c-.608.082-1.214.2-1.825.233a.855.855,0,0,0-.814.561c-.263.543-.562,1.068-.9,1.7-.307-.653-.595-1.2-.824-1.772a.853.853,0,0,0-.751-.574c-.6-.088-1.193-.2-1.912-.328.538-.505.976-.945,1.446-1.347a.8.8,0,0,0,.285-.851c-.111-.615-.174-1.238-.269-1.948.618.343,1.18.643,1.73.965a.754.754,0,0,0,.844.026C1025.15-148.486,1025.739-148.738,1026.392-149.052Z" transform="translate(-1005.509 153.06)" fill="#c5e1fc"></path><path d="M1056.648-160.793c.345.647.674,1.183.922,1.754a.807.807,0,0,0,.778.52c.6.055,1.2.148,1.911.239-.517.54-.938,1.023-1.408,1.452a.741.741,0,0,0-.233.81c.141.606.267,1.215.433,1.976-.7-.352-1.293-.623-1.858-.942a.691.691,0,0,0-.787.019c-.548.328-1.116.622-1.781.989a19.809,19.809,0,0,1,.292-2.014.669.669,0,0,0-.3-.762c-.479-.425-.943-.867-1.48-1.365.738-.131,1.377-.278,2.023-.345a.741.741,0,0,0,.673-.564C1056.069-159.6,1056.35-160.15,1056.648-160.793Z" transform="translate(-1027.177 160.793)" fill="#c5e1fc"></path><path d="M1109.686-125.149c.368.635.715,1.176,1,1.748a.776.776,0,0,0,.71.47c.624.05,1.248.1,2.008.167a8.945,8.945,0,0,1-1.065,1.133c-.735.547-.547,1.217-.374,1.91l.305,1.224c-.588-.277-1.068-.486-1.532-.725a1.119,1.119,0,0,0-1.372.051,12.56,12.56,0,0,1-1.482.884,16.15,16.15,0,0,1,.194-1.9.836.836,0,0,0-.385-.949c-.461-.365-.889-.77-1.428-1.244.745-.152,1.391-.259,2.02-.425a.926.926,0,0,0,.542-.405C1109.132-123.809,1109.377-124.441,1109.686-125.149Z" transform="translate(-1062.507 137.087)" fill="#c5e1fc"></path><path d="M999.306-122.116c.784-.039,1.462-.052,2.135-.12a.85.85,0,0,0,.547-.309c.383-.539.718-1.111,1.137-1.776.241.639.48,1.183.651,1.747a.968.968,0,0,0,.849.754c.561.1,1.109.275,1.776.446-.577.448-1.068.844-1.576,1.215a.8.8,0,0,0-.34.875c.083.579.07,1.171.1,1.9-.449-.3-.828-.523-1.169-.792a1.358,1.358,0,0,0-1.7-.22,10.647,10.647,0,0,1-1.484.593c.182-.631.323-1.2.509-1.747a.967.967,0,0,0-.224-1.117C1000.106-121.09,999.756-121.573,999.306-122.116Z" transform="translate(-991.374 136.537)" fill="#c5e1fc"></path><path d="M1050.473-78.3a12.731,12.731,0,0,1-.587,1.7,1.646,1.646,0,0,1-1.812.875,1.766,1.766,0,0,1-1.473-1.254,3.662,3.662,0,0,1-.118-2.375,1.95,1.95,0,0,1,1.9-1.663,2.028,2.028,0,0,1,1.871,1.718c.073.312.091.638.134.958Z" transform="translate(-1022.656 107.733)" fill="#c5e1fc"></path></svg>
