<svg xmlns="http://www.w3.org/2000/svg" width="145.744" height="19.142" viewBox="0 0 145.744 19.142"><g transform="translate(0 0)"><path d="M73.186,197.553c3.571-3.25,7.528-2.252,9.523.584a5.417,5.417,0,0,1,5.449-2.548,4.056,4.056,0,0,1,4.067,3.865c.443,3.385.119,6.8.209,10.194.012.411-.108.621-.563.615-1.3-.017-2.605-.026-3.908,0-.811.018-.567-.561-.575-.962-.046-2.434,0-4.872-.127-7.3-.094-1.765-.8-2.462-2.08-2.449-1.369.014-2.247.927-2.3,2.613-.071,2.393-.057,4.789-.023,7.183.01.706-.176.965-.908.924-1.335-.076-3.09.434-3.9-.234-.838-.694-.193-2.514-.258-3.841a33.009,33.009,0,0,0-.188-4.774,2.1,2.1,0,0,0-2.054-2,2,2,0,0,0-2.163,2c-.165,1.792-.1,3.606-.135,5.411-.022,1.086.364,2.525-.182,3.166-.639.75-2.124.213-3.24.245-1.627.046-1.628.012-1.628-1.662,0-3.823.025-7.647-.019-11.471-.01-.864.2-1.218,1.108-1.129a12.07,12.07,0,0,0,2.266,0C72.684,195.886,73.512,196.032,73.186,197.553Z" transform="translate(1.156 -191.702)" fill="#898989"></path><path d="M158.244,197.567a5.553,5.553,0,0,1,4.3-1.962c3.571-.017,5.491,1.713,5.61,5.307.095,2.852,0,5.71.036,8.564.009.711-.271.838-.892.817-1.132-.04-2.27-.058-3.4,0-.767.043-.892-.278-.882-.949.035-2.351.018-4.7.012-7.054,0-1.821-.637-2.644-2.07-2.716a2.444,2.444,0,0,0-2.735,2.6c-.087,2.307-.085,4.618-.035,6.926.02.893-.14,1.315-1.145,1.2-1.277-.147-3,.535-3.73-.276-.633-.706-.189-2.393-.193-3.646-.009-3.108.029-6.215-.024-9.321-.014-.852.255-1.1,1.066-1.044a13.639,13.639,0,0,0,2.517,0C157.859,195.872,158.458,196.21,158.244,197.567Z" transform="translate(-22.456 -191.724)" fill="#898989"></path><path d="M134.043,197.766c1.8-2.226,3.971-2.444,6.253-2.03s3.66,2.085,3.8,4.823c.153,3.015.046,6.042.087,9.063.008.615-.286.664-.766.656-1.175-.021-2.353-.048-3.525.009-.7.034-.828-.252-.817-.873.033-2.014.02-4.03.008-6.044a14.842,14.842,0,0,0-.105-1.754,2.035,2.035,0,0,0-1.989-2.044,2.371,2.371,0,0,0-2.666,1.781,7.026,7.026,0,0,0-.24,2.115c0,1.973-.015,3.946.009,5.918.006.577-.03.944-.78.9-1.375-.079-3.143.439-4.021-.236-.83-.638-.227-2.508-.242-3.834-.035-3.021.036-6.045-.038-9.065-.024-.986.288-1.245,1.2-1.153a16.407,16.407,0,0,0,2.139.011C133.429,195.976,134.646,195.754,134.043,197.766Z" transform="translate(-15.737 -191.713)" fill="#898989"></path><path d="M59.59,201.3c0,1.3.044,2.606-.009,3.906a5.211,5.211,0,0,1-4.24,5.366,12.893,12.893,0,0,1-7.086-.112,4.954,4.954,0,0,1-3.825-4.748c-.132-2.935-.079-5.878-.126-8.818-.009-.552.212-.74.745-.729,1.177.023,2.356.047,3.53-.007.762-.035.9.3.889.969-.025,2.437-.043,4.875.027,7.31.051,1.8,1.136,2.644,2.908,2.429,1.351-.164,2.03-.9,2.08-2.528.074-2.393.071-4.79.035-7.184-.012-.759.169-1.05.97-1,1.089.068,2.186.047,3.277.006.649-.025.89.18.869.854-.043,1.427-.013,2.857-.013,4.286Z" transform="translate(7.808 -191.877)" fill="#898989"></path><path d="M-20.5,195.619a10.827,10.827,0,0,1,3.895.6c.5.172.677.4.333.875a5.262,5.262,0,0,0-.351.666c-.9,1.739-.9,1.737-2.735,1.4a2.945,2.945,0,0,0-1.487-.071c-.492.157-1.036.271-1.066.887-.029.6.416.874.946,1.005.608.151,1.223.276,1.828.44,2.312.626,3.38,1.732,3.573,3.678A4.823,4.823,0,0,1-18.4,210a10.093,10.093,0,0,1-9.085-.507c-.4-.206-.575-.448-.313-.871.044-.071.092-.14.131-.214.431-.814.673-1.885,1.341-2.376.787-.579,1.555.541,2.4.743a5.7,5.7,0,0,0,2.35.219,1.083,1.083,0,0,0,.942-.895.919.919,0,0,0-.719-1.048c-.75-.253-1.537-.4-2.3-.6-1.577-.421-2.96-1.109-3.214-2.932a4.489,4.489,0,0,1,1.986-4.812A7.209,7.209,0,0,1-20.5,195.619Z" transform="translate(27.922 -191.724)" fill="#898989"></path><path d="M-3.468,203.74c0,1.426-.027,2.854.013,4.279.017.61-.184.8-.785.776-1.131-.041-2.268-.056-3.4,0-.747.04-.9-.248-.894-.937.035-2.727-.009-5.455.029-8.183.01-.723-.11-1.137-.942-.989-.6.106-.688-.25-.668-.742.027-.628.017-1.259,0-1.888-.018-.831-.219-1.75,1.172-1.562.506.069.411-.416.416-.729.011-.881.035-1.764-.006-2.643-.03-.625.132-.925.824-.9,1.174.042,2.351.03,3.525,0,.55-.013.739.2.719.739-.03.88.035,1.765-.02,2.642-.046.732.24.916.937.93,2.069.04,2.069.07,2.069,2.157v.126c0,1.859,0,1.915-1.829,1.848-.93-.034-1.255.2-1.187,1.167C-3.4,201.133-3.468,202.439-3.468,203.74Z" transform="translate(22.967 -190.226)" fill="#898989"></path><path d="M14.592,200.452l-.194.33a8.465,8.465,0,0,0-2.452-.455,3.211,3.211,0,0,0-3.369,3.441c-.063,1.846-.066,3.695-.031,5.541.015.761-.1,1.173-1,1.082-1.323-.134-3.1.55-3.856-.274-.657-.718-.2-2.469-.2-3.764-.011-3.066.027-6.131-.024-9.2-.014-.839.234-1.11,1.058-1.052a18.11,18.11,0,0,0,2.77,0c.968-.082,1.423.207,1.25,1.232a9.442,9.442,0,0,0-.007,1.188,5.36,5.36,0,0,1,4.791-2.574c.7-.009.987.167.942.906-.056.921-.025,1.848-.006,2.771C14.264,199.928,14.11,200.329,14.592,200.452Z" transform="translate(19.218 -191.819)" fill="#898989"></path><path d="M34.565,196.321c-.782-.8-2.392-.135-3.627-.283-.859-.1-1.34.154-1.318,1.1-4.556-2.84-9.625-1.292-10.9,3.248-.066.108-.193.183-.193.33a7.985,7.985,0,0,0,2.56,8.733,7.125,7.125,0,0,0,4.352,1.411,5.964,5.964,0,0,0,4.292-1.919c-.247,1.315.34,1.49,1.243,1.424a17.851,17.851,0,0,1,2.771,0c.861.072,1.057-.26,1.047-1.064-.04-3.15,0-6.3-.026-9.453C34.755,198.642,35.286,197.059,34.565,196.321Zm-7.95,10.165a3.133,3.133,0,0,1-3.284-3.209,3.173,3.173,0,0,1,3.256-3.265,3.134,3.134,0,0,1,3.261,3.364A3.074,3.074,0,0,1,26.614,206.487Z" transform="translate(15.09 -191.753)" fill="#898989"></path><path d="M119.9,196.847c.005-.679-.224-.869-.867-.841a27.788,27.788,0,0,1-3.023,0c-.843-.056-1.4.077-1.147,1.307a6.908,6.908,0,0,0-9.664.506,8.179,8.179,0,0,0,.234,10.9,6.723,6.723,0,0,0,4.35,2.047,5.559,5.559,0,0,0,5.136-2.148c-.384,1.657.374,1.742,1.367,1.672a21.25,21.25,0,0,1,2.771,0c.668.04.848-.18.843-.843Q119.853,203.147,119.9,196.847Zm-8.066,9.6a3.127,3.127,0,0,1-3.286-3.215,3.271,3.271,0,1,1,3.286,3.215Z" transform="translate(-8.602 -191.718)" fill="#898989"></path></g></svg>