<svg xmlns="http://www.w3.org/2000/svg" width="102.715" height="54.283" viewBox="0 0 102.715 54.283"><path d="M475.281-303.539h.527c.07.032.148,0,.219.03a4.815,4.815,0,0,1,2.021.757,3.947,3.947,0,0,1,1.629,2.559c.062.3.089.6.131.9a.43.43,0,0,1,.012.159q0,3.451,0,6.9a.394.394,0,0,1-.013.158,1.569,1.569,0,0,1-.959,1.194c-.024.01-.05.017-.051.051h-.923a1.451,1.451,0,0,1-1.1-1.252,6.27,6.27,0,0,1-.042-.76q0-2.617,0-5.234a3.92,3.92,0,0,0-.366-1.652,1.788,1.788,0,0,0-1.658-1.07,3.437,3.437,0,0,0-1.033.112,2.275,2.275,0,0,0-1.479,1.288,3.243,3.243,0,0,0-.37,1.539c.022,1.865.007,3.73.009,5.6a1.523,1.523,0,0,1-.565,1.191,1.08,1.08,0,0,1-.539.244h-.963a1.653,1.653,0,0,1-.872-.85,1.229,1.229,0,0,1-.116-.539c.006-.087,0-.174,0-.261q0-5.246,0-10.491c0-.08-.006-.16-.009-.24.042-.066.109-.035.163-.035.888,0,1.777,0,2.665-.005.156,0,.206.038.2.2-.011.407-.006.814,0,1.222,0,.055-.049.137.051.166a4.055,4.055,0,0,1,1.414-1.347,4.647,4.647,0,0,1,1.431-.455c.111-.018.222-.033.334-.05C475.108-303.541,475.2-303.5,475.281-303.539Z" transform="translate(-389.373 345.109)" fill="#898989"></path><path d="M208.695-302.141c-.229.553-.462,1.1-.688,1.658q-.987,2.426-1.97,4.854c-.522,1.288-1.038,2.579-1.571,3.862a4.876,4.876,0,0,1-.561,1.176,2.3,2.3,0,0,1-1,.755c-.03.012-.067.011-.075.052h-1.244c-.161-.131-.371-.153-.544-.276a2.527,2.527,0,0,1-.9-1.195c-.235-.606-.486-1.206-.73-1.809s-.477-1.181-.717-1.77c-.228-.562-.459-1.122-.688-1.683q-.317-.777-.632-1.555c-.241-.6-.479-1.2-.72-1.794s-.492-1.216-.738-1.823a2.651,2.651,0,0,1-.191-.483c.037-.042.086-.027.131-.027q1.516,0,3.032,0c.042,0,.1-.024.122.036.14.481.341.939.517,1.406q.821,2.181,1.65,4.358.493,1.3.983,2.6c0,.011.02.017.042.036a3.121,3.121,0,0,0,.3-.7c.19-.5.372-1,.569-1.491.253-.638.482-1.286.726-1.928.359-.948.723-1.9,1.082-2.844.177-.468.349-.939.523-1.408.03-.087.1-.069.168-.069q1.49,0,2.981,0C208.6-302.2,208.677-302.234,208.695-302.141Z" transform="translate(-176.139 344.067)" fill="#898989"></path><path d="M119.268-302.158c-.219.45-.384.923-.572,1.386q-1.126,2.766-2.25,5.533c-.521,1.282-1.047,2.561-1.558,3.846a2.73,2.73,0,0,1-.923,1.29c-.176.125-.388.178-.563.3h-1.2a2.08,2.08,0,0,1-1.465-1.356q-1.43-3.508-2.851-7.02-.711-1.755-1.429-3.509a4.965,4.965,0,0,1-.155-.472v-.04a.224.224,0,0,1,.136-.019q1.5,0,3,0c.049,0,.108-.026.147.032.125.437.306.853.466,1.277q.887,2.356,1.784,4.709.441,1.163.881,2.327c.015.04.027.088.066.088s.048-.049.063-.088c.374-.984.753-1.966,1.127-2.95.324-.853.639-1.71.962-2.564.279-.738.565-1.473.843-2.21a3.915,3.915,0,0,1,.237-.612c.525-.025,1.05-.007,1.575-.01q.748-.005,1.5,0C119.144-302.213,119.234-302.267,119.268-302.158Z" transform="translate(-106.297 344.084)" fill="#898989"></path><path d="M529.9-306.134c-.093-.1-.231-.12-.336-.2a1.486,1.486,0,0,1-.634-1.087.728.728,0,0,1-.011-.219q0-3.709,0-7.417a.4.4,0,0,0-.02-.216c-.386,0-.772-.015-1.158-.01-.132,0-.167-.038-.166-.168q.008-1.459,0-2.919c0-.131.034-.168.166-.166.386.005.772,0,1.159-.008a.393.393,0,0,0,.02-.215q0-2.091,0-4.181c0-.067-.04-.146.034-.2.909,0,1.818.012,2.727.005.2,0,.257.038.257.249q-.01,7.519,0,15.039a1.642,1.642,0,0,1-1.075,1.714Z" transform="translate(-435.296 360.417)" fill="#898989"></path><path d="M174.742-289.775a1.644,1.644,0,0,1-.939-1,1.825,1.825,0,0,1-.057-.6q0-5.273,0-10.545c0-.08,0-.16,0-.24.036-.044.086-.028.131-.028.909,0,1.819,0,2.728,0,.13,0,.171.034.171.167q0,5.394,0,10.788a.252.252,0,0,1-.013.1,1.544,1.544,0,0,1-.941,1.3c-.029.012-.064.023-.069.063Z" transform="translate(-158.968 344.058)" fill="#898989"></path><path d="M109.585-302.246a.518.518,0,0,0-.1-.019l-3.19.005v-.04c1.023,0,2.046,0,3.07,0C109.44-302.3,109.53-302.338,109.585-302.246Z" transform="translate(-106.297 344.146)" fill="#898989"></path><path d="M140.036-378.566a1.968,1.968,0,0,1-1.615-1.017,7.75,7.75,0,0,1-.43-.994c-.256-.612-.512-1.223-.762-1.837-.179-.441-.347-.886-.525-1.327-.226-.562-.458-1.122-.686-1.684q-.359-.883-.716-1.768t-.723-1.793c-.188-.465-.368-.932-.568-1.392-.085-.2-.159-.4-.241-.593.007-.089.077-.058.122-.058q1.509,0,3.018,0c.06,0,.123-.006.153.065.193.615.442,1.211.669,1.813q.947,2.513,1.9,5.024c.182.48.363.961.548,1.44.014.035-.008.109.067.1.048,0,.051-.058.063-.092.287-.79.591-1.573.895-2.356.321-.827.61-1.666.925-2.5.389-1.028.791-2.052,1.186-3.077.046-.12.088-.241.132-.362.03-.056.081-.061.136-.061,1.032,0,2.064,0,3.1,0a.126.126,0,0,1,.055.02q-1.31,3.234-2.62,6.467c-.639,1.575-1.258,3.159-1.929,4.72a2.024,2.024,0,0,1-1.71,1.255A1.674,1.674,0,0,1,140.036-378.566Z" transform="translate(-127.753 413.439)" fill="#898989"></path><path d="M265.947-386.734a5.6,5.6,0,0,1,.419-1.755,6.578,6.578,0,0,1,1.05-1.731,6.205,6.205,0,0,1,2.159-1.671,6.569,6.569,0,0,1,2.28-.589,7.217,7.217,0,0,1,.921,0A6.572,6.572,0,0,1,276.43-391c.455.373.461.366.048.775-.489.485-.981.967-1.466,1.456-.1.1-.155.114-.271.009a3.585,3.585,0,0,0-1.88-.909,2.4,2.4,0,0,0-.809-.034c-.07.03-.148,0-.217.029a3.567,3.567,0,0,0-3.032,2.677,2.1,2.1,0,0,0-.085.685.973.973,0,0,0,0,.392,3.307,3.307,0,0,0,.847,2.167,3.5,3.5,0,0,0,2.061,1.206,1.363,1.363,0,0,0,.256.022c.08.04.169,0,.25.03h.363c.081-.032.171.01.251-.029a3.337,3.337,0,0,0,1.652-.644c.038-.026.078-.052.111-.079.126-.1.248-.292.394-.258s.246.212.365.329c.489.485.974.973,1.467,1.454.095.092.1.142,0,.233a6.263,6.263,0,0,1-3.137,1.649,2.042,2.042,0,0,1-.463.086c-.067.032-.145-.006-.212.031l-.23.01a4.543,4.543,0,0,1-.76,0l-.23-.01c-.067-.036-.145,0-.212-.031a6.265,6.265,0,0,1-3.02-1.208,6.178,6.178,0,0,1-1.952-2.413,6.286,6.286,0,0,1-.525-1.675,2.911,2.911,0,0,0-.049-.407c-.035-.1.01-.2-.03-.294q0-.348,0-.7C265.958-386.537,265.912-386.639,265.947-386.734Z" transform="translate(-230.955 414.58)" fill="#898989"></path><path d="M327.47-412.073q0,3.088,0,6.176,0,4.642,0,9.284a1.544,1.544,0,0,1-.869,1.455,1.631,1.631,0,0,1-.453.141,1.094,1.094,0,0,1-.359,0,1.465,1.465,0,0,1-1.332-1.373.652.652,0,0,1-.012-.219q0-7.619,0-15.239c0-.279-.027-.246.246-.246q1.284,0,2.568,0A.38.38,0,0,1,327.47-412.073Z" transform="translate(-276.658 429.89)" fill="#898989"></path><path d="M425.216-380.842a1.537,1.537,0,0,1-1.332,1.373,1.1,1.1,0,0,1-.359,0,1.494,1.494,0,0,1-1.312-1.232,1.849,1.849,0,0,1-.006-.417q0-5.271,0-10.543c0-.08,0-.16,0-.24.048-.056.113-.029.169-.029.888,0,1.775,0,2.663-.005.161,0,.2.046.2.2-.009.487-.005.974,0,1.461,0,.055-.05.138.053.165a4.25,4.25,0,0,1,3.1-2.052c.1-.033.2.01.3-.029h.288c.1.039.2,0,.3.029a4.178,4.178,0,0,0,.595.09c.087.017.11.069.11.156,0,.885,0,1.771,0,2.656,0,.064.016.146-.1.122a8.487,8.487,0,0,0-.912-.173c-.067-.035-.144,0-.213-.029a3.226,3.226,0,0,0-.724,0c-.066.032-.143-.008-.208.031a2.73,2.73,0,0,0-1.722.875,4.165,4.165,0,0,0-.833,1.514.387.387,0,0,0-.006.1.427.427,0,0,0-.019.216q0,2.772,0,5.544A.649.649,0,0,1,425.216-380.842Z" transform="translate(-353.004 414.343)" fill="#898989"></path><path d="M113-378.589a1.462,1.462,0,0,1-1.291-1.29.552.552,0,0,1-.013-.2q0-5.371,0-10.742c0-.23,0-.231.222-.231.869,0,1.738,0,2.607,0,.065,0,.147-.046.2.039,0,.059-.014.119-.014.178q0,5.278,0,10.556c0,.059.009.119.013.178-.037.083,0,.174-.03.257a1.748,1.748,0,0,1-.389.767,1.531,1.531,0,0,1-.9.483A1.186,1.186,0,0,1,113-378.589Z" transform="translate(-110.513 413.46)" fill="#898989"></path><path d="M160.586-459.882a2.241,2.241,0,0,1,.724.167.368.368,0,0,1,.064.266c0,1.149,0,2.3,0,3.449a.5.5,0,0,1-.025.177,2.036,2.036,0,0,1-.684.168,2.337,2.337,0,0,1-.518,0,1.983,1.983,0,0,1-1.061-.33,1.9,1.9,0,0,1-.782-1.178c-.036-.143-.018-.287-.051-.427a1.047,1.047,0,0,1,0-.358,2.229,2.229,0,0,1,.23-.916,1.758,1.758,0,0,1,1.37-.968c.124-.022.25-.034.375-.05A1.093,1.093,0,0,1,160.586-459.882Z" transform="translate(-146.861 467.219)" fill="#898989"></path><path d="M116.148-425.264a2.646,2.646,0,0,1,.977.359.411.411,0,0,1,.15.125.364.364,0,0,1,.063.246q0,1.59,0,3.18a.45.45,0,0,1-.066.267,2.216,2.216,0,0,1-2.054.386c-.012,0-.021-.015-.031-.023a.655.655,0,0,1-.026-.257q0-1.88,0-3.761a1.094,1.094,0,0,0-.053-.394,2.236,2.236,0,0,1,.52-.129A2.3,2.3,0,0,1,116.148-425.264Z" transform="translate(-113.18 440.184)" fill="#898989"></path><path d="M347.241-488.009a.729.729,0,0,1-.753-.518,3.176,3.176,0,0,1-.1-.572c-.037-.122.013-.251-.03-.373v-.135c.043-.122-.007-.251.03-.373a1.97,1.97,0,0,1,.128-.65c.119-.351.426-.386.723-.442.1-.034.2.011.293-.029h.855c.082.037.171,0,.253.028a.8.8,0,0,1,.808.819.948.948,0,0,0,.042.153c.034.081-.008.172.03.253v.617c-.039.08,0,.171-.03.252-.017.091-.034.183-.051.274a.806.806,0,0,1-.8.7c-.1.033-.2-.01-.294.029h-.815C347.441-488.019,347.337-487.974,347.241-488.009Z" transform="translate(-293.779 491.588)" fill="#898989"></path><path d="M549.339-358.317a.657.657,0,0,1-.116.023c-.794.014-1.589.042-2.382-.024-.35-.029-.386-.05-.409-.4a20.1,20.1,0,0,1,.006-2.74.273.273,0,0,1,.267-.287,6.862,6.862,0,0,1,1.039-.058,13.159,13.159,0,0,1,1.478.031c-.214.074-.235.237-.233.438.009.879,0,1.757,0,2.636,0,.264,0,.264.263.334A.149.149,0,0,1,549.339-358.317Z" transform="translate(-449.992 390.619)" fill="#898989"></path><path d="M409.322-474.079a.7.7,0,0,1-.73-.436,1.828,1.828,0,0,1-.081-.414c-.031-.082.008-.173-.029-.254V-476c.037-.082,0-.173.03-.256a2.132,2.132,0,0,1,.082-.413c.118-.333.4-.381.691-.42.066-.009.132-.013.2-.019a9.8,9.8,0,0,1,1.081,0,1.131,1.131,0,0,1,.763.265,1.386,1.386,0,0,1,.209.587c.032.081-.009.171.029.252v.854c-.033.069,0,.146-.028.215-.064.272-.077.567-.363.731a.959.959,0,0,1-.448.119c-.191.038-.386-.015-.577.029a.589.589,0,0,0-.249,0C409.708-474.094,409.513-474.041,409.322-474.079Z" transform="translate(-342.293 480.667)" fill="#898989"></path><path d="M285.218-493.3a12.412,12.412,0,0,1,1.312.033,1.007,1.007,0,0,1,1,.938c.015.064.031.127.05.19s0,.146.031.213l.011.268a.49.49,0,0,1,0,.238l-.011.271c-.037.066,0,.143-.03.21a2.045,2.045,0,0,1-.282.773,1.2,1.2,0,0,1-.97.4,7.966,7.966,0,0,1-1,0l-.278-.024a.339.339,0,0,1-.028-.176c0-1.068,0-2.136,0-3.2a.309.309,0,0,1,.008-.059C285.062-493.332,285.164-493.255,285.218-493.3Z" transform="translate(-245.873 493.308)" fill="#898989"></path><path d="M217.516-478.269a1.568,1.568,0,0,1-.77-.241,1.467,1.467,0,0,1-.584-.893,3.715,3.715,0,0,1-.09-.95c.037-.066,0-.142.029-.208a2.113,2.113,0,0,1,.254-.867,1.39,1.39,0,0,1,1.1-.652l.1-.015c.15-.036.306.014.455-.029h.05c.062.041.156-.02.205.063a.383.383,0,0,1,.032.175c0,1.192.007,2.385,0,3.577a.1.1,0,0,1-.033.067h-.454C217.715-478.28,217.612-478.237,217.516-478.269Z" transform="translate(-192.028 484.577)" fill="#898989"></path><path d="M562.6-302.1c.073.038.037.106.037.158,0,1.056,0,2.113.006,3.169,0,.154-.043.188-.19.187q-1.565-.009-3.13,0c-.147,0-.21-.022-.208-.194.009-1.05.007-2.1,0-3.149,0-.136.029-.184.174-.181.6.011,1.19.008,1.785.01a.437.437,0,0,1,.063.325c0,.922,0,1.844,0,2.766,0,.328,0,.328.337.329h.7c.357,0,.357,0,.357-.348q0-1.373,0-2.745C562.536-301.883,562.513-302,562.6-302.1Z" transform="translate(-459.93 343.992)" fill="#898989"></path><path d="M521.125-412.809a2.6,2.6,0,0,1,.637.035.334.334,0,0,1,.3.3,1.889,1.889,0,0,1,.038.277,18.336,18.336,0,0,1-.019,2.341c-.038.4-.114.467-.512.493a12.531,12.531,0,0,1-1.381.009.372.372,0,0,1-.065-.266q0-1.463,0-2.926c0-.269.017-.283.284-.279A5.811,5.811,0,0,1,521.125-412.809Z" transform="translate(-429.478 430.459)" fill="#898989"></path><path d="M471.628-451.434a6.9,6.9,0,0,1,1.337.036.479.479,0,0,1,.468.488,10.919,10.919,0,0,1,0,2.136c-.034.358-.177.489-.532.541a1.57,1.57,0,0,1-.458.015c-.246.034-.493.006-.74.015-.086,0-.117-.048-.132-.12a.886.886,0,0,1-.013-.18q0-1.323,0-2.646A.4.4,0,0,1,471.628-451.434Z" transform="translate(-391.556 460.621)" fill="#898989"></path><path d="M225.988-478.224c-.081-.06-.05-.147-.05-.222q0-1.8,0-3.6a.685.685,0,0,1,.32,0,1.8,1.8,0,0,1,.907.371,1.773,1.773,0,0,1,.493,1.042,2.793,2.793,0,0,1-.086,1.359,1.384,1.384,0,0,1-1.314,1.053A.6.6,0,0,1,225.988-478.224Z" transform="translate(-199.729 484.53)" fill="#898989"></path><path d="M109.463-424.628c.086-.007.117.034.117.118q0,2.1,0,4.2a.261.261,0,0,1-.037.088,2,2,0,0,1-1.352-1.078,2.278,2.278,0,0,1,.2-2.587A1.9,1.9,0,0,1,109.463-424.628Z" transform="translate(-107.532 439.675)" fill="#898989"></path><path d="M515.638-412.83c-.247,0-.5.014-.742,0-.166-.009-.2.054-.2.207.006,1.083,0,2.166,0,3.249a6.488,6.488,0,0,1-1.218-.037.343.343,0,0,1-.315-.307,3.629,3.629,0,0,1-.06-.616,18.37,18.37,0,0,1,.025-1.92c.039-.455.13-.553.589-.574A17.929,17.929,0,0,1,515.638-412.83Z" transform="translate(-423.991 430.481)" fill="#898989"></path><path d="M569.58-302.061c0,1.088,0,2.177,0,3.265,0,.18-.052.228-.226.221-.367-.013-.735-.011-1.1,0-.156,0-.206-.041-.2-.2.007-1.095,0-2.19,0-3.285Z" transform="translate(-466.911 343.955)" fill="#898989"></path><path d="M466.632-451.421c0,1,0,2.006,0,3.009,0,.154.035.217.2.206.207-.013.414,0,.622,0-.51.045-1.021,0-1.531.005-.571,0-.728-.285-.726-.735,0-.08-.009-.159-.013-.239q-.032-.641,0-1.282c.015-.152.023-.3.046-.454a.488.488,0,0,1,.455-.475A4.009,4.009,0,0,1,466.632-451.421Z" transform="translate(-386.56 460.608)" fill="#898989"></path><path d="M172.286-455.173c-.07-.066-.039-.151-.039-.228q0-1.832,0-3.664a1.544,1.544,0,0,1,1,.894,2.387,2.387,0,0,1-.167,2.394A1.5,1.5,0,0,1,172.286-455.173Z" transform="translate(-157.796 466.569)" fill="#898989"></path><path d="M558.4-358.187c-.41-.014-.41-.014-.41-.432v-2.718c0-.3,0-.3.293-.311.724.015.649.073.68.617a19.706,19.706,0,0,1,0,2.317C558.928-358.225,558.888-358.187,558.4-358.187Z" transform="translate(-459.052 390.489)" fill="#898989"></path><path d="M281.435-493.173a.345.345,0,0,1,.04.212q0,1.531,0,3.063a.3.3,0,0,1-.036.193,1.012,1.012,0,0,1-.966-.943c-.023-.135-.014-.273-.048-.405-.036-.109.012-.225-.03-.334v-.131c.041-.109-.007-.226.03-.335a2.692,2.692,0,0,1,.163-.757.961.961,0,0,1,.807-.573C281.413-493.2,281.427-493.194,281.435-493.173Z" transform="translate(-242.261 493.221)" fill="#898989"></path><path d="M124.984-419.309l0-3.693a2.043,2.043,0,0,1,.757.943,3.521,3.521,0,0,1,.17.587,2.809,2.809,0,0,1,0,.6,2.523,2.523,0,0,1-.615,1.292A2.541,2.541,0,0,1,124.984-419.309Z" transform="translate(-120.891 438.405)" fill="#898989"></path><path d="M327.39-412.151a2.128,2.128,0,0,0-.5-.017c-.762,0-1.525,0-2.287-.006-.178,0-.232.037-.232.226q.01,4.762,0,9.525,0,2.978,0,5.955c-.057-.063-.033-.14-.033-.211q0-7.636-.005-15.272c0-.189.045-.25.241-.248.869.011,1.738,0,2.607.006C327.254-412.192,327.333-412.221,327.39-412.151Z" transform="translate(-276.578 429.968)" fill="#898989"></path><path d="M388.984-307.5c0-.087,0-.174,0-.26q0-7.562,0-15.123a.668.668,0,0,0-.019-.258c.1.058.055.156.055.235q0,5.482,0,10.965,0,2.1,0,4.21C389.016-307.651,389.043-307.567,388.984-307.5Z" transform="translate(-327.047 360.415)" fill="#898989"></path><path d="M114.643-391.071a.4.4,0,0,0-.216-.027c-.862,0-1.724,0-2.587,0-.175,0-.22.039-.22.217q.011,5.472.009,10.944c-.057-.063-.033-.14-.033-.211q0-5.375,0-10.749c0-.18.043-.239.232-.237.869.01,1.739,0,2.608.006C114.5-391.132,114.6-391.174,114.643-391.071Z" transform="translate(-110.431 413.522)" fill="#898989"></path><path d="M176.755-291.217q0-1.623,0-3.245,0-3.786,0-7.573c0-.189-.054-.227-.231-.225-.855.009-1.71,0-2.565,0-.073,0-.146.01-.219.016.044-.075.118-.049.181-.049.889,0,1.778,0,2.666,0,.158,0,.2.043.2.2q-.007,5.351,0,10.7C176.788-291.329,176.8-291.266,176.755-291.217Z" transform="translate(-158.968 344.135)" fill="#898989"></path><path d="M533.6-287.212c.06.037.031.1.031.145q0,3.854,0,7.707c-.058-.071-.032-.154-.032-.232Q533.6-283.4,533.6-287.212Z" transform="translate(-440.001 332.358)" fill="#898989"></path><path d="M519.169-276.918v-7.219c.056.064.032.141.032.212q0,3.4,0,6.8C519.2-277.058,519.226-276.981,519.169-276.918Z" transform="translate(-428.736 329.956)" fill="#898989"></path><path d="M435.966-361.7q0-2.914,0-5.828a.191.191,0,0,1,.036-.151q0,2.894,0,5.788C436-361.823,436.019-361.753,435.966-361.7Z" transform="translate(-363.754 395.197)" fill="#898989"></path><path d="M425.3-389.281c-.01.016-.019.045-.031.047-.073.01-.038-.049-.038-.074,0-.32,0-.641,0-.961,0-.234,0-.467,0-.7,0-.08-.014-.122-.108-.12-.968.012-1.936-.018-2.9.017.043-.077.117-.05.18-.05.887,0,1.775,0,2.662,0,.172,0,.213.056.21.217-.01.473,0,.947,0,1.42C425.268-389.421,425.243-389.344,425.3-389.281Z" transform="translate(-353.021 413.514)" fill="#898989"></path><path d="M471.846-300.684c-.057.026-.06.026-.06-.023,0-.233,0-.466,0-.7s0-.48,0-.72c0-.073,0-.128-.1-.128-.96.005-1.92.007-2.88.01a.115.115,0,0,0-.037.014c.037-.084.113-.056.175-.056.894,0,1.789,0,2.684,0,.152,0,.195.046.192.194-.009.4,0,.8,0,1.2C471.815-300.825,471.79-300.748,471.846-300.684Z" transform="translate(-389.373 344.134)" fill="#898989"></path><path d="M533.644-323.141a.479.479,0,0,0-.025.236q0,2.079,0,4.159c0,.068.037.145-.031.2q0-2.182,0-4.364C533.589-322.985,533.542-323.083,533.644-323.141Z" transform="translate(-439.989 360.417)" fill="#898989"></path><path d="M398-391.058a1.4,1.4,0,0,0-.177-.022c-.887,0-1.775,0-2.662,0-.153,0-.19.043-.186.19.011.347.005.694,0,1.04,0,.033.059.13-.061.1.063-.06.036-.138.037-.209,0-.334,0-.668,0-1,0-.11.034-.155.149-.154.922,0,1.844,0,2.766,0C397.915-391.117,397.973-391.125,398-391.058Z" transform="translate(-331.695 413.506)" fill="#898989"></path><path d="M243.189-302.211c-.042-.08-.118-.044-.178-.044q-1.457,0-2.915,0c-.071,0-.148-.016-.2.057,0-.1.078-.09.143-.09q1.527,0,3.054,0C243.135-302.288,243.23-302.325,243.189-302.211Z" transform="translate(-210.633 344.136)" fill="#898989"></path><path d="M136.99-391.056c-.043-.054-.1-.05-.165-.05q-1.494,0-2.988,0c-.049,0-.11-.025-.14.043-.04-.048-.017-.074.034-.077.08-.005.16,0,.24,0,.936,0,1.872,0,2.808,0C136.854-391.138,136.965-391.194,136.99-391.056Z" transform="translate(-127.68 413.529)" fill="#898989"></path><path d="M181.233-391.07l-3.141-.007a.172.172,0,0,0-.146.046c.009-.085.073-.081.134-.081H181.2a.056.056,0,0,1,.035.009C181.238-391.1,181.233-391.081,181.233-391.07Z" transform="translate(-162.252 413.5)" fill="#898989"></path><path d="M153.907-302.244c-.051-.084-.133-.043-.2-.044q-1.528-.005-3.057,0c.057-.051.127-.031.192-.031.968,0,1.936,0,2.9,0C153.8-302.32,153.913-302.39,153.907-302.244Z" transform="translate(-140.936 344.17)" fill="#898989"></path><path d="M199.013-302.231a1.041,1.041,0,0,0-.157-.023q-1.5,0-3.01,0a.949.949,0,0,0-.119.014c.045-.073.119-.048.182-.048q1.464,0,2.928,0C198.9-302.288,198.977-302.315,199.013-302.231Z" transform="translate(-176.139 344.135)" fill="#898989"></path><path d="M457.178-388.72c.091.006.089-.055.088-.118,0-.889,0-1.778,0-2.667a.144.144,0,0,0-.1-.149c.095-.012.13.03.13.125q0,1.357,0,2.714C457.3-388.737,457.3-388.655,457.178-388.72Z" transform="translate(-380.315 413.925)" fill="#898989"></path><path d="M307.579-302.241c-1-.011-2.006-.019-3.008,0,.041-.064.106-.045.163-.045h2.679C307.471-302.283,307.535-302.3,307.579-302.241Z" transform="translate(-261.142 344.129)" fill="#898989"></path><path d="M465.088-446.971v1.282a4.035,4.035,0,0,1-.03-.891A.723.723,0,0,1,465.088-446.971Z" transform="translate(-386.467 457.124)" fill="#898989"></path><path d="M414.131-477.192H413.05A3.666,3.666,0,0,1,414.131-477.192Z" transform="translate(-345.86 480.757)" fill="#898989"></path><path d="M286.431-477.168h1A3.073,3.073,0,0,1,286.431-477.168Z" transform="translate(-246.975 480.708)" fill="#898989"></path><path d="M400.953-276.628q0,.48,0,.961A2.759,2.759,0,0,1,400.953-276.628Z" transform="translate(-336.381 324.092)" fill="#898989"></path><path d="M293.947-392.573h-.921A2.618,2.618,0,0,1,293.947-392.573Z" transform="translate(-252.126 414.673)" fill="#898989"></path><path d="M330.04-276.445q0,.44,0,.881A2.365,2.365,0,0,1,330.04-276.445Z" transform="translate(-281.001 323.949)" fill="#898989"></path><path d="M293.392-334.117h.76A1.754,1.754,0,0,1,293.392-334.117Z" transform="translate(-252.412 368.989)" fill="#898989"></path><path d="M224.492-334.118h.761A1.755,1.755,0,0,1,224.492-334.118Z" transform="translate(-198.603 368.99)" fill="#898989"></path><path d="M377.5-334.118h.64A1.285,1.285,0,0,1,377.5-334.118Z" transform="translate(-318.097 368.991)" fill="#898989"></path><path d="M129.229-415.417v-.6A1.09,1.09,0,0,1,129.229-415.417Z" transform="translate(-124.205 432.949)" fill="#898989"></path><path d="M416.087-463.218a3.321,3.321,0,0,1,.576-.029A1.808,1.808,0,0,1,416.087-463.218Z" transform="translate(-348.232 469.835)" fill="#898989"></path><path d="M457.075-275.867a3.031,3.031,0,0,1-.03-.578A1.8,1.8,0,0,1,457.075-275.867Z" transform="translate(-380.218 323.949)" fill="#898989"></path><path d="M412.317-463.248a3.3,3.3,0,0,1,.577.029A1.793,1.793,0,0,1,412.317-463.248Z" transform="translate(-345.288 469.836)" fill="#898989"></path><path d="M118-425.355h-.519A.857.857,0,0,1,118-425.355Z" transform="translate(-115.032 440.275)" fill="#898989"></path><path d="M166.958-440.531h.518A.865.865,0,0,1,166.958-440.531Z" transform="translate(-153.671 452.095)" fill="#898989"></path><path d="M457.049-271.778a2.559,2.559,0,0,1,.029-.538A1.609,1.609,0,0,1,457.049-271.778Z" transform="translate(-380.221 320.725)" fill="#898989"></path><path d="M225.651-482.126l-.32,0-.175-.034A1.317,1.317,0,0,1,225.651-482.126Z" transform="translate(-199.122 484.61)" fill="#898989"></path><path d="M431.427-303.725a2.278,2.278,0,0,1-.5-.028A1.4,1.4,0,0,1,431.427-303.725Z" transform="translate(-359.825 345.283)" fill="#898989"></path><path d="M286.741-303.754a2.339,2.339,0,0,1-.5.03A1.347,1.347,0,0,1,286.741-303.754Z" transform="translate(-246.83 345.284)" fill="#898989"></path><path d="M259.32-276.812a2.362,2.362,0,0,1-.03.5A1.354,1.354,0,0,1,259.32-276.812Z" transform="translate(-225.773 324.236)" fill="#898989"></path><path d="M223.3-482.155a1.805,1.805,0,0,1-.455.029A1.169,1.169,0,0,1,223.3-482.155Z" transform="translate(-197.318 484.608)" fill="#898989"></path><path d="M394.909-341.726c.058-.047.064-.006.065.039,0,.107,0,.213.007.32C394.895-341.475,395-341.621,394.909-341.726Z" transform="translate(-331.693 374.948)" fill="#898989"></path><path d="M429.082-303.753a1.956,1.956,0,0,1-.456.028A1.178,1.178,0,0,1,429.082-303.753Z" transform="translate(-358.024 345.282)" fill="#898989"></path><path d="M259.292-274.33a2,2,0,0,1,.029.457A1.187,1.187,0,0,1,259.292-274.33Z" transform="translate(-225.774 322.298)" fill="#898989"></path><path d="M162.374-334.114h.439A.63.63,0,0,1,162.374-334.114Z" transform="translate(-150.091 368.987)" fill="#898989"></path><path d="M117.662-334.121h.4A.5.5,0,0,1,117.662-334.121Z" transform="translate(-115.173 368.992)" fill="#898989"></path><path d="M401.137-334.122h.4A.5.5,0,0,1,401.137-334.122Z" transform="translate(-336.557 368.993)" fill="#898989"></path><path d="M330.591-334.116h.359A.431.431,0,0,1,330.591-334.116Z" transform="translate(-281.463 368.989)" fill="#898989"></path><path d="M428.258-334.118l.359,0A.431.431,0,0,1,428.258-334.118Z" transform="translate(-357.737 368.99)" fill="#898989"></path><path d="M197.022-365.829a1.291,1.291,0,0,1-.03.377C197-365.578,196.956-365.708,197.022-365.829Z" transform="translate(-177.121 393.755)" fill="#898989"></path><path d="M196.992-362.438a1.25,1.25,0,0,1,.03.379C196.955-362.181,197-362.312,196.992-362.438Z" transform="translate(-177.121 391.107)" fill="#898989"></path><path d="M289.1-303.72a1.328,1.328,0,0,1-.378-.029C288.852-303.742,288.982-303.787,289.1-303.72Z" transform="translate(-248.768 345.279)" fill="#898989"></path><path d="M167.681-459.968h-.358A.431.431,0,0,1,167.681-459.968Z" transform="translate(-153.956 467.305)" fill="#898989"></path><path d="M158.166-451v.358A.423.423,0,0,1,158.166-451Z" transform="translate(-146.774 460.27)" fill="#898989"></path><path d="M346.365-485.984a1.137,1.137,0,0,1-.03.373C346.343-485.735,346.3-485.864,346.365-485.984Z" transform="translate(-293.753 487.592)" fill="#898989"></path><path d="M278.617-363.853a.753.753,0,0,1,0-.392Z" transform="translate(-240.853 392.518)" fill="#898989"></path><path d="M346.335-483.667a1.151,1.151,0,0,1,.03.373C346.3-483.414,346.343-483.543,346.335-483.667Z" transform="translate(-293.753 485.782)" fill="#898989"></path><path d="M280.4-487.083a.9.9,0,0,1-.03.335C280.373-486.86,280.328-486.977,280.4-487.083Z" transform="translate(-242.232 488.45)" fill="#898989"></path><path d="M280.366-484.955a.908.908,0,0,1,.03.334C280.328-484.727,280.374-484.844,280.366-484.955Z" transform="translate(-242.233 486.788)" fill="#898989"></path><path d="M349.837-364v.319A.34.34,0,0,1,349.837-364Z" transform="translate(-296.462 392.325)" fill="#898989"></path><path d="M265.893-361.683a.675.675,0,0,1,.03.294C265.857-361.482,265.9-361.585,265.893-361.683Z" transform="translate(-230.93 390.517)" fill="#898989"></path><path d="M226.1-464.536l.269,0c-.093.062-.195.023-.293.027Z" transform="translate(-199.84 470.842)" fill="#898989"></path><path d="M222.663-464.53a.753.753,0,0,1,.293.028C222.858-464.508,222.756-464.467,222.663-464.53Z" transform="translate(-197.175 470.839)" fill="#898989"></path><path d="M350.381-476.991a.717.717,0,0,1,.294.03C350.577-476.968,350.473-476.925,350.381-476.991Z" transform="translate(-296.918 480.57)" fill="#898989"></path><path d="M453.391-392.189a.762.762,0,0,1-.3-.029C453.193-392.211,453.3-392.254,453.391-392.189Z" transform="translate(-377.133 414.37)" fill="#898989"></path><path d="M450.726-392.218a.8.8,0,0,1-.3.029C450.524-392.253,450.628-392.212,450.726-392.218Z" transform="translate(-375.054 414.37)" fill="#898989"></path><path d="M265.922-366.2a.68.68,0,0,1-.03.292C265.9-366,265.857-366.1,265.922-366.2Z" transform="translate(-230.93 394.042)" fill="#898989"></path><path d="M350.674-491.127a.752.752,0,0,1-.293.029C350.473-491.162,350.576-491.12,350.674-491.127Z" transform="translate(-296.918 491.614)" fill="#898989"></path><path d="M355.442-476.958a.739.739,0,0,1,.294-.029C355.643-476.923,355.54-476.965,355.442-476.958Z" transform="translate(-300.87 480.567)" fill="#898989"></path><path d="M350-360.947a.566.566,0,0,1,.031.253C349.97-360.772,350.008-360.862,350-360.947Z" transform="translate(-296.618 389.942)" fill="#898989"></path><path d="M350.033-366.745a.565.565,0,0,1-.031.251C350.008-366.579,349.97-366.668,350.033-366.745Z" transform="translate(-296.617 394.47)" fill="#898989"></path><path d="M360.659-482.314a.528.528,0,0,1,.03-.252C360.684-482.481,360.722-482.392,360.659-482.314Z" transform="translate(-304.944 484.923)" fill="#898989"></path><path d="M296.9-485.563v-.238A.2.2,0,0,1,296.9-485.563Z" transform="translate(-255.15 487.449)" fill="#898989"></path><path d="M255.486-363.576v-.239A.2.2,0,0,1,255.486-363.576Z" transform="translate(-222.808 392.182)" fill="#898989"></path><path d="M360.689-486.281a.53.53,0,0,1-.03-.253C360.722-486.456,360.684-486.366,360.689-486.281Z" transform="translate(-304.943 488.021)" fill="#898989"></path><path d="M497.6-303.563a.571.571,0,0,1-.256.029C497.42-303.6,497.51-303.559,497.6-303.563Z" transform="translate(-411.688 345.133)" fill="#898989"></path><path d="M408.458-468.291a.555.555,0,0,1,.029.254C408.425-468.116,408.462-468.206,408.458-468.291Z" transform="translate(-342.269 473.774)" fill="#898989"></path><path d="M456.89-278.209a.543.543,0,0,1-.031-.251C456.922-278.383,456.884-278.293,456.89-278.209Z" transform="translate(-380.072 325.523)" fill="#898989"></path><path d="M422.443-472.91a.555.555,0,0,1-.029-.252C422.475-473.084,422.438-472.995,422.443-472.91Z" transform="translate(-353.172 477.578)" fill="#898989"></path><path d="M125.383-340.745a.667.667,0,0,1,.03-.257C125.407-340.916,125.446-340.825,125.383-340.745Z" transform="translate(-121.202 374.366)" fill="#898989"></path><path d="M355.878-491.1a.544.544,0,0,1-.253-.028C355.71-491.119,355.8-491.156,355.878-491.1Z" transform="translate(-301.013 491.611)" fill="#898989"></path><path d="M296.208-346.974a.47.47,0,0,1-.251.029C296.035-347.005,296.124-346.969,296.208-346.974Z" transform="translate(-254.415 379.035)" fill="#898989"></path><path d="M293.408-346.945a.465.465,0,0,1-.25-.03C293.242-346.968,293.331-347.005,293.408-346.945Z" transform="translate(-252.229 379.035)" fill="#898989"></path><path d="M427.724-256.645a.461.461,0,0,1-.25-.029C427.558-256.668,427.646-256.7,427.724-256.645Z" transform="translate(-357.125 308.513)" fill="#898989"></path><path d="M431.441-256.674a.5.5,0,0,1-.251.029C431.267-256.705,431.357-256.669,431.441-256.674Z" transform="translate(-360.027 308.514)" fill="#898989"></path><path d="M408.487-473.163a.548.548,0,0,1-.03.255C408.462-472.993,408.424-473.084,408.487-473.163Z" transform="translate(-342.268 477.579)" fill="#898989"></path><path d="M422.415-467.9a.4.4,0,0,1,.028-.215C422.44-468.041,422.471-467.964,422.415-467.9Z" transform="translate(-353.172 473.636)" fill="#898989"></path><path d="M452.079-379.186a.349.349,0,0,1,.213.029C452.22-379.16,452.143-379.129,452.079-379.186Z" transform="translate(-376.341 404.189)" fill="#898989"></path><path d="M296.707-483.266a.371.371,0,0,1,.03-.21C296.734-483.405,296.765-483.329,296.707-483.266Z" transform="translate(-254.999 485.633)" fill="#898989"></path><path d="M447.821-379.157a.331.331,0,0,1,.208-.031C447.967-379.131,447.891-379.162,447.821-379.157Z" transform="translate(-373.015 404.191)" fill="#898989"></path><path d="M501.132-303.53a.379.379,0,0,1-.219-.03C500.987-303.556,501.066-303.589,501.132-303.53Z" transform="translate(-414.478 345.13)" fill="#898989"></path><path d="M292.941-379.711a.347.347,0,0,1,.217-.029C293.092-379.682,293.014-379.714,292.941-379.711Z" transform="translate(-252.059 404.623)" fill="#898989"></path><path d="M255.3-360.749a.417.417,0,0,1,.028-.216C255.326-360.892,255.357-360.815,255.3-360.749Z" transform="translate(-222.662 389.956)" fill="#898989"></path><path d="M297.913-334.28a.4.4,0,0,1,.212-.031C298.061-334.252,297.985-334.284,297.913-334.28Z" transform="translate(-255.942 369.142)" fill="#898989"></path><path d="M291.375-334.312a.388.388,0,0,1,.212.031C291.515-334.285,291.439-334.253,291.375-334.312Z" transform="translate(-250.836 369.143)" fill="#898989"></path><path d="M408.861-340.594a.483.483,0,0,1,.029-.214C408.887-340.736,408.918-340.659,408.861-340.594Z" transform="translate(-342.588 374.215)" fill="#898989"></path><path d="M216.084-474.992a.38.38,0,0,1-.029.208C216.059-474.854,216.029-474.929,216.084-474.992Z" transform="translate(-192.01 479.008)" fill="#898989"></path><path d="M296.733-487.787A.378.378,0,0,1,296.7-488C296.762-487.936,296.729-487.859,296.733-487.787Z" transform="translate(-254.995 489.166)" fill="#898989"></path><path d="M285-493.277l-.039-.011c.063-.06.139-.028.211-.032Z" transform="translate(-245.829 493.325)" fill="#898989"></path><path d="M255.331-366.347a.428.428,0,0,1-.028-.214C255.359-366.5,255.329-366.419,255.331-366.347Z" transform="translate(-222.664 394.327)" fill="#898989"></path><path d="M343.04-322.955c0-.061.036-.134-.035-.183-.928,0-1.856.011-2.785.005-.167,0-.21.043-.209.209.006,1.829,0,3.659,0,5.489,0,.047,0,.094,0,.14,0,.03.013.069-.03.085s-.06-.02-.083-.041q-.186-.166-.37-.334a4.662,4.662,0,0,0-2.61-1.271,1.333,1.333,0,0,1-.376-.029H336.5a1.989,1.989,0,0,1-.456.028,6.541,6.541,0,0,0-2.409.658,6.288,6.288,0,0,0-1.942,1.507,6.7,6.7,0,0,0-1.256,2.194,5.465,5.465,0,0,0-.3,1.588,6.187,6.187,0,0,0,0,.881,6.524,6.524,0,0,0,.136.979,6.108,6.108,0,0,0,.738,1.863,6.3,6.3,0,0,0,2.1,2.141,6.21,6.21,0,0,0,1.585.713,5.2,5.2,0,0,1,.749.2H337.2a5.491,5.491,0,0,0,2.751-1.513,1.533,1.533,0,0,0,1.1,1.513h.963c.005-.041.041-.051.069-.063a1.539,1.539,0,0,0,.941-1.3.5.5,0,0,0,.012-.179Q343.042-315.315,343.04-322.955Zm-6.531,14.1a3.61,3.61,0,0,1-3.606-3.61,3.6,3.6,0,0,1,3.612-3.622,3.611,3.611,0,0,1,3.619,3.618A3.617,3.617,0,0,1,336.509-308.858Z" transform="translate(-281.092 360.415)" fill="#898989"></path><path d="M272.242-303.364a.169.169,0,0,0-.115-.021h-2.78c-.039,0-.081-.008-.113.025,0,.4,0,.8,0,1.2,0,.036.021.084-.026.107s-.071-.024-.1-.048c-.129-.115-.257-.232-.385-.348a4.672,4.672,0,0,0-2.585-1.246c-.124-.037-.254.012-.378-.03h-.047c-.163.045-.333-.009-.5.03a6.731,6.731,0,0,0-2.326.63,6.309,6.309,0,0,0-2.126,1.682,6.476,6.476,0,0,0-.917,1.5,5.72,5.72,0,0,0-.5,2.047c-.039.164.015.334-.03.5,0,0,.01.01.01.014a.186.186,0,0,1-.01.032c.043.15-.007.307.029.457a5.211,5.211,0,0,0,.181,1.151,5.907,5.907,0,0,0,.742,1.735,6.316,6.316,0,0,0,1.461,1.643,6.426,6.426,0,0,0,2.453,1.2,1.389,1.389,0,0,1,.469.126h1.766a5.517,5.517,0,0,0,2.748-1.512,1.554,1.554,0,0,0,1.105,1.512h.963c.005-.041.041-.05.069-.064a1.537,1.537,0,0,0,.934-1.524Q272.241-297.96,272.242-303.364Zm-6.506,9.668a3.609,3.609,0,0,1-3.618-3.619,3.6,3.6,0,0,1,3.621-3.613,3.611,3.611,0,0,1,3.612,3.626A3.618,3.618,0,0,1,265.736-293.7Z" transform="translate(-225.804 345.252)" fill="#898989"></path><path d="M413.331-296.844a1,1,0,0,1,0-.327c-.045-.191.01-.387-.03-.578l-.01-.191c-.04-.08,0-.17-.031-.251a1.958,1.958,0,0,1-.044-.195,7.1,7.1,0,0,0-.892-2.742,5.008,5.008,0,0,0-1.672-1.755,5.765,5.765,0,0,0-2.577-.813c-.164-.036-.332.015-.5-.029h-.049c-.15.042-.306-.007-.456.028a6.9,6.9,0,0,0-2.416.639,6.43,6.43,0,0,0-2.11,1.618,6.525,6.525,0,0,0-1.042,1.682,5.54,5.54,0,0,0-.461,1.968,7.211,7.211,0,0,0,0,.961,4.257,4.257,0,0,0,.054.6,7.147,7.147,0,0,0,.564,1.689,6.587,6.587,0,0,0,1.746,2.174,6.6,6.6,0,0,0,2.737,1.306c.105.023.237-.022.323.084h2.167c.052-.075.142-.063.212-.076a6.511,6.511,0,0,0,3.876-2.351c-.21-.157-.412-.306-.613-.458-.46-.349-.918-.7-1.38-1.046-.062-.046-.134-.136-.221-.03a4.879,4.879,0,0,1-.937.874,3.146,3.146,0,0,1-1.689.644c-.08.039-.17,0-.251.029a3.177,3.177,0,0,1-.564,0c-.081-.032-.17.01-.25-.029a2.7,2.7,0,0,1-2.075-1.125,3.445,3.445,0,0,1-.647-1.6c-.037-.065-.068-.128.054-.126h0a.131.131,0,0,1,.035,0h8.862c.08,0,.16,0,.24-.007a.076.076,0,0,1,.008-.037C413.34-296.484,413.287-296.666,413.331-296.844Zm-3.162-1.668q-1.484,0-2.967,0h-2.887c-.238,0-.238,0-.207-.242a3.027,3.027,0,0,1,3.1-2.695,3.133,3.133,0,0,1,2.229.785,3.071,3.071,0,0,1,.892,2.024C410.339-298.5,410.261-298.512,410.169-298.512Z" transform="translate(-336.474 345.252)" fill="#898989"></path><path d="M362.84-391.917c0-.053.007-.106.011-.159-.019-.053-.065-.037-.1-.037-.926,0-1.851,0-2.777,0-.135,0-.151.057-.149.167q.007.509,0,1.019c0,.053.052.139-.056.159-.092-.084-.186-.167-.277-.253a4.838,4.838,0,0,0-2.776-1.4h-.881a7.016,7.016,0,0,0-2.174.553,6.386,6.386,0,0,0-2.362,1.844,6.037,6.037,0,0,0-.872,1.462,5.56,5.56,0,0,0-.459,1.765c-.034.081.009.171-.031.251q0,.176-.01.351a.837.837,0,0,0,0,.319l.011.349c.039.081,0,.171.031.253a3.608,3.608,0,0,0,.1.615,5.115,5.115,0,0,0,.405,1.249,6.855,6.855,0,0,0,.944,1.49,6.356,6.356,0,0,0,1.789,1.489,6.133,6.133,0,0,0,2.748.782,3.225,3.225,0,0,0,.64,0,4.879,4.879,0,0,0,2.1-.778,8.184,8.184,0,0,0,1.075-.872c.066-.019.056.032.059.067a1.676,1.676,0,0,0,.012.292,1.463,1.463,0,0,0,1.293,1.291,1.184,1.184,0,0,0,.4,0,1.545,1.545,0,0,0,1.293-1.251c.028-.069-.005-.146.029-.214,0-.053-.01-.106-.01-.159Q362.839-386.6,362.84-391.917Zm-6.5,9.492a3.62,3.62,0,0,1-3.635-3.6,3.614,3.614,0,0,1,3.612-3.626,3.6,3.6,0,0,1,3.62,3.612A3.609,3.609,0,0,1,356.34-382.425Z" transform="translate(-296.549 414.524)" fill="#898989"></path><path d="M209.825-386.159l-.011-.387c-.034-.068,0-.145-.028-.214-.043-.234-.077-.469-.13-.7a6.284,6.284,0,0,0-2.144-3.5,6.433,6.433,0,0,0-3.595-1.468h-.961a6.742,6.742,0,0,0-2.383.643,6.39,6.39,0,0,0-2.116,1.676,6.388,6.388,0,0,0-.932,1.542,5.789,5.789,0,0,0-.477,1.964c-.036.124.012.254-.03.378v.365c.042.124-.007.255.03.378a5.123,5.123,0,0,0,.059.582,6.97,6.97,0,0,0,.834,2.17,6.316,6.316,0,0,0,2.536,2.383,6.094,6.094,0,0,0,2.557.69,4.542,4.542,0,0,0,.761,0,6.135,6.135,0,0,0,2.147-.5,6.471,6.471,0,0,0,3.184-2.995,6.788,6.788,0,0,0,.659-2.166c.028-.07,0-.147.028-.216l.011-.385A.48.48,0,0,0,209.825-386.159Zm-6.393,3.732a3.608,3.608,0,0,1-3.622-3.614,3.6,3.6,0,0,1,3.619-3.616,3.612,3.612,0,0,1,3.617,3.622A3.619,3.619,0,0,1,203.433-382.427Z" transform="translate(-177.148 414.526)" fill="#898989"></path></svg>