<svg xmlns="http://www.w3.org/2000/svg" width="126.047" height="40.777" viewBox="0 0 126.047 40.777"><g transform="translate(0 0)"><path d="M63.061,169.235c.164.362.471.722.472,1.085q.037,19.116.019,38.233c0,.818-.255,1.078-1.076,1.079q-6.1.009-12.2,0a5.207,5.207,0,0,1-4.593-2.432c-3.572-5.212-7.25-10.351-10.86-15.536a2.614,2.614,0,0,1-.424-1.334c-.052-1.505-.019-3.014-.02-4.521,0-.4-.045-.828.453-.994s.815.081,1.106.485c4.326,6.01,8.681,12,12.983,18.029a3.133,3.133,0,0,0,2.8,1.446c1.911-.022,3.823,0,5.734-.007.789,0,1.032-.237,1.032-1.039q.006-14.2,0-28.392c0-.817-.258-1.055-1.093-1.058-1.689-.005-3.378,0-5.068,0-.765,0-1-.227-1-.982-.008-.953-.041-1.908.016-2.858a4.963,4.963,0,0,1,.386-1.2Z" transform="translate(-23.056 -169.235)" fill="#898989"></path><path d="M30.857,169.235c.274.08.547.167.824.239a3.951,3.951,0,0,1,2.311,1.583q5.742,8.159,11.463,16.334a2,2,0,0,1,.314,1.048c.034,1.528.012,3.058.016,4.588,0,.44-.03.87-.528,1.036-.526.175-.8-.153-1.081-.542-4.291-5.954-8.617-11.885-12.869-17.867a3.414,3.414,0,0,0-3.068-1.6c-1.844.023-3.69,0-5.534.008-.818,0-1.064.26-1.064,1.089q0,14.163,0,28.327c0,.853.247,1.094,1.127,1.1,1.645.007,3.289,0,4.934,0,.909,0,1.11.2,1.113,1.079,0,1,.008,1.995,0,2.992-.007.7-.26.972-.968.975q-5.134.015-10.269,0c-.736,0-.976-.27-.976-1.024q0-19.184.015-38.368a3.188,3.188,0,0,1,.37-1Z" transform="translate(-16.598 -169.235)" fill="#898989"></path><path d="M212.438,219.05l-.644-.078v-2.5l-.131-.05-1.12,1.463-1.1-1.467-.141.036c0,.677.022,1.355-.014,2.029-.01.185-.19.36-.292.54-.118-.164-.332-.327-.336-.494-.031-1.08-.016-2.161-.016-3.231.605-.342.816.1,1.073.447s.525.7.838,1.113c.327-.439.638-.809.892-1.215a.842.842,0,0,1,.994-.448Z" transform="translate(-86.391 -185.926)" fill="#898989"></path><path d="M109.489,190.2V180.045h2.542V195.1c-.777,0-1.55.028-2.318-.02-.181-.011-.393-.246-.514-.43q-3.3-5.028-6.587-10.069c-.071-.109-.151-.214-.334-.471v10.953h-2.59V180.012c.942,0,1.87-.025,2.794.021.175.009.376.272.5.46q2.9,4.419,5.78,8.85.289.444.579.887Z" transform="translate(-46.796 -173.149)" fill="#898989"></path><path d="M143.579,194.022l-.107,1.065h-2.227V180.1h2.5v4.919a5.124,5.124,0,0,1,2.813-1.239,4.165,4.165,0,0,1,4.313,2.378,7.617,7.617,0,0,1-.114,6.916,4.358,4.358,0,0,1-6.889,1.157A2.16,2.16,0,0,0,143.579,194.022Zm.188-4.457c0,.663-.011,1.327.008,1.989a.883.883,0,0,0,.165.54,2.947,2.947,0,0,0,2.786,1.057,2.528,2.528,0,0,0,2.032-1.873,5.508,5.508,0,0,0,.105-3.072,2.706,2.706,0,0,0-4.353-1.644,1.4,1.4,0,0,0-.756,1.413A12.983,12.983,0,0,1,143.766,189.565Z" transform="translate(-61.899 -173.185)" fill="#898989"></path><path d="M107.615,216.132c2.462,1.138,3.337,3.333,2.251,5.571a3.652,3.652,0,0,1-3.008,2.162c-2.374.211-4.768.209-7.2.3V208.94c1.2,0,2.367-.014,3.537,0a25.848,25.848,0,0,1,3.121.122,3.707,3.707,0,0,1,1.41,6.932C107.695,216.016,107.675,216.059,107.615,216.132Zm-6.452,6.506c1.721,0,3.388.1,5.037-.029a2.75,2.75,0,0,0,2.6-2.788,2.583,2.583,0,0,0-2.438-2.814c-1.707-.164-3.443-.037-5.2-.037Zm0-7.073c1.5,0,2.923.048,4.341-.013a2.6,2.6,0,0,0,.239-5.193,12.365,12.365,0,0,0-1.793-.068c-.922-.01-1.843,0-2.788,0Z" transform="translate(-46.785 -183.663)" fill="#898989"></path><path d="M169.912,192.635h-7.485a2.764,2.764,0,0,0,1.395,2.388c1.657.808,3.1.143,4.508-.868l1.122,1.765a6.408,6.408,0,0,1-7.384.773,4.691,4.691,0,0,1-1.947-2.611,7.566,7.566,0,0,1,.028-4.766,4.867,4.867,0,0,1,5.093-3.459,4.673,4.673,0,0,1,4.459,4.182C169.834,190.86,169.839,191.7,169.912,192.635Zm-2.63-1.829c-.117-1.924-1.091-3.005-2.558-2.913a2.612,2.612,0,0,0-2.253,2.913Z" transform="translate(-68.624 -175.271)" fill="#898989"></path><path d="M132.441,191.665a6.513,6.513,0,0,1-1.062,3.725,4.926,4.926,0,0,1-5.006,2.08,4.637,4.637,0,0,1-4-3.254,7.241,7.241,0,0,1,.067-5.2,5.144,5.144,0,0,1,9.772.876C132.335,190.473,132.366,191.074,132.441,191.665Zm-2.5.029a16.648,16.648,0,0,0-.528-2.053,2.255,2.255,0,0,0-2.262-1.532,2.312,2.312,0,0,0-2.243,1.577,5.135,5.135,0,0,0,.021,4.066,2.317,2.317,0,0,0,2.274,1.535,2.273,2.273,0,0,0,2.206-1.528A16.226,16.226,0,0,0,129.942,191.694Z" transform="translate(-54.875 -175.273)" fill="#898989"></path><path d="M160.589,217.289l-.506-1.187c2.181-1.107,4.4-1.833,6.811-.888,1.362.534,1.709,1.781,1.729,3.113.025,1.751.005,3.5.008,5.252a2.47,2.47,0,0,0,.75,2.107l-.984.877-1.168-1.339a27.719,27.719,0,0,1-2.943,1.174,3.794,3.794,0,0,1-2.84-.4,3.227,3.227,0,0,1-1.7-3.276,2.536,2.536,0,0,1,1.955-2.486c1.273-.36,2.6-.551,3.9-.784.5-.09,1.015-.093,1.567-.139a12.11,12.11,0,0,0-.007-1.265,2.039,2.039,0,0,0-2.061-1.95,7.152,7.152,0,0,0-3.908.876Zm6.6,2.941c-1.64.315-3.174.528-4.66.924a1.692,1.692,0,0,0-1.346,1.947,2.027,2.027,0,0,0,1.486,1.969,4.207,4.207,0,0,0,4.351-1.232.72.72,0,0,0,.16-.41C167.194,222.439,167.187,221.448,167.187,220.23Z" transform="translate(-68.619 -185.787)" fill="#898989"></path><path d="M189.243,221.286c.212,1.6.627,2.991,2.137,3.637,1.819.778,3.424.2,4.889-1.059l.661.975c-1.875,2.229-7.054,2.686-8.606-1.3a7.5,7.5,0,0,1,.171-6.009,4.523,4.523,0,0,1,4.31-2.7,4.232,4.232,0,0,1,4.092,3.132,27.24,27.24,0,0,1,.606,3.323Zm6.617-1.2c.076-2.305-1.362-4.021-3.294-3.971a3.584,3.584,0,0,0-3.208,3.971Z" transform="translate(-78.81 -185.804)" fill="#898989"></path><path d="M178.682,180.075h2.46c.011.248.032.5.032.758q0,5.285,0,10.571c0,1.667.085,1.747,1.76,1.638l.215,1.9a4.594,4.594,0,0,1-3.367.076A2.039,2.039,0,0,1,178.617,193c-.024-4.233-.009-8.465,0-12.7A.972.972,0,0,1,178.682,180.075Z" transform="translate(-75.476 -173.175)" fill="#898989"></path><path d="M135.565,220.516a23.461,23.461,0,0,1-.677,2.891,4.546,4.546,0,0,1-4.507,3.1,4.594,4.594,0,0,1-4.415-3.243,7.439,7.439,0,0,1,.222-5.7,4.448,4.448,0,0,1,4.279-2.746,4.29,4.29,0,0,1,4.243,2.66A21.529,21.529,0,0,1,135.565,220.516Zm-1.6.139.19-.059a15.013,15.013,0,0,0-.916-2.856,3.144,3.144,0,0,0-5.516-.031,5.73,5.73,0,0,0,.039,5.954,3.176,3.176,0,0,0,5.438.034A5.336,5.336,0,0,0,133.96,220.655Z" transform="translate(-56.178 -185.801)" fill="#898989"></path><path d="M151.167,222.8l1.17.595a4.675,4.675,0,0,1-4.348,3.113,4.455,4.455,0,0,1-4.268-3.035,7.6,7.6,0,0,1,.125-5.828,4.413,4.413,0,0,1,4.219-2.823,4.257,4.257,0,0,1,4.085,2.579,1.771,1.771,0,0,1,.1.243.658.658,0,0,1,0,.169l-1.146.534c-.1-.181-.191-.332-.274-.484a2.948,2.948,0,0,0-2.884-1.756,3,3,0,0,0-2.732,1.917,6.194,6.194,0,0,0-.013,5.28,2.97,2.97,0,0,0,5.378.428C150.782,223.442,150.956,223.136,151.167,222.8Z" transform="translate(-62.61 -185.802)" fill="#898989"></path><path d="M179.556,226.164h-1.372V215.115h1.328l.073,1.377a18.467,18.467,0,0,1,2.029-1.4,3.265,3.265,0,0,1,2.4-.172V216.2c-.4,0-.772-.013-1.14,0a4.076,4.076,0,0,0-3.131,1.772,1.3,1.3,0,0,0-.181.744c-.013,2.215-.008,4.429-.008,6.643Z" transform="translate(-75.324 -185.785)" fill="#898989"></path><path d="M121.344,226.316h-1.38v-10.99h1.38Z" transform="translate(-54.165 -185.986)" fill="#898989"></path><path d="M204.448,215.724a4.154,4.154,0,0,1-.764-.012c-.127-.027-.229-.176-.342-.269.12-.089.237-.251.36-.255.709-.024,1.421-.032,2.129,0,.151.008.291.22.436.337l-.117.169-1.043.06c0,.906.019,1.788-.015,2.668-.008.2-.2.4-.3.6-.114-.191-.318-.378-.325-.573C204.428,217.567,204.448,216.684,204.448,215.724Z" transform="translate(-84.467 -185.928)" fill="#898989"></path><path d="M121.457,210.212a.974.974,0,1,1-1.947-.074.974.974,0,0,1,1.947.074Z" transform="translate(-53.999 -183.764)" fill="#898989"></path></g></svg>