<svg xmlns="http://www.w3.org/2000/svg" width="71.322" height="59.097" viewBox="0 0 71.322 59.097"><g transform="translate(0.513 0.5)"><path d="M666.971-378.422a6.964,6.964,0,0,1-.586.8q-3.929,4.059-7.877,8.1a1.765,1.765,0,0,1-2.761-.009q-3.955-4.084-7.907-8.171a3.31,3.31,0,0,1-.281-.325,1.265,1.265,0,0,1,.466-2.016.8.8,0,0,1,.348-.039q3.372,0,6.745,0h.394A24.34,24.34,0,0,0,639.52-398.9a23.6,23.6,0,0,0-11.137-1.04,23.5,23.5,0,0,0-10.412,4.162,24.443,24.443,0,0,0-7.419,8.4l-4.15-1.69c.721-1.151,1.367-2.295,2.12-3.362a28.366,28.366,0,0,1,14.309-10.758,27.2,27.2,0,0,1,8.118-1.449c.142,0,.283-.031.424-.047h1.076c.141.019.281.05.423.055a25.182,25.182,0,0,1,7.388,1.281c9.992,3.427,16.321,10.315,19.167,20.446.257.916.411,1.861.62,2.822h.381c1.722,0,3.445.041,5.164-.02a1.176,1.176,0,0,1,1.254.858c.036.085.084.164.126.247Z" transform="translate(-596.663 404.684)" fill="#c5e1fc" stroke="#c5e1fc" stroke-width="1"></path><path d="M539.669-195.647c2.857,8.737,8.45,14.583,17.309,17.092a22.589,22.589,0,0,0,9.918.458,23.538,23.538,0,0,0,9.235-3.628,24.636,24.636,0,0,0,7.027-7.065l4.11,1.668c-.051.1-.086.18-.134.254-4.236,6.626-10.1,11.109-17.8,12.792-10.406,2.272-19.422-.551-26.875-8.149a27.9,27.9,0,0,1-7.152-13.125c-.065-.263-.186-.3-.419-.3-1.962.007-3.923.005-5.885,0a1.259,1.259,0,0,1-1.06-1.65,2.893,2.893,0,0,1,.517-.724q3.984-4.132,7.984-8.25a1.72,1.72,0,0,1,2.6-.011q4.077,4.167,8.14,8.348a1.482,1.482,0,0,1-.272,2.225.737.737,0,0,1-.376.059q-3.176,0-6.351,0Z" transform="translate(-527.856 231.399)" fill="#c5e1fc" stroke="#c5e1fc" stroke-width="1"></path></g></svg>
