<svg xmlns="http://www.w3.org/2000/svg" width="60.604" height="54.063" viewBox="0 0 60.604 54.063"><path d="M778.583,27.1c.077-.286.139-.576.233-.856a4.288,4.288,0,0,1,3.93-2.931c.1,0,.206-.005.309-.005q20.436,0,40.871,0a4.28,4.28,0,0,1,4.264,3.023,5.049,5.049,0,0,1,.207,1.428q.018,13.942.007,27.883a4.361,4.361,0,0,1-4.483,4.468q-12.753,0-25.506,0a.79.79,0,0,0-.619.252q-5.117,5.135-10.249,10.256c-.085.084-.173.165-.311.3v-10.8h-.367q-1.917,0-3.834,0a4.325,4.325,0,0,1-4.4-3.681.952.952,0,0,0-.051-.144Zm4.351.547V55.8h8.672v4.637c.129-.122.211-.2.29-.276q2.066-2.065,4.129-4.135a.754.754,0,0,1,.591-.247q13.511.01,27.023.005h.373V27.643Z" transform="translate(-778.583 -23.303)" fill="#c5e1fc"></path><path d="M984.157,107.095V78.938H979.87V74.629c.1-.005.2-.015.3-.015,1.309,0,2.618,0,3.927,0a4.243,4.243,0,0,1,4.356,4.355q0,13.989,0,27.977a4.305,4.305,0,0,1-3.677,4.368,5.284,5.284,0,0,1-.862.049c-1.247,0-2.494,0-3.741,0H979.8v10.806c-.132-.121-.214-.192-.29-.269q-5.149-5.147-10.294-10.3a.761.761,0,0,0-.594-.243q-9.353.01-18.705.005h-.406v-4.3c.107-.006.215-.018.323-.018q10.342,0,20.684.008a.747.747,0,0,1,.476.2c1.424,1.418,2.835,2.849,4.248,4.277.072.073.135.155.262.3v-4.739Z" transform="translate(-927.845 -68.108)" fill="#c5e1fc"></path><path d="M955.9,146.094a3.251,3.251,0,1,1-3.226-3.258A3.273,3.273,0,0,1,955.9,146.094Z" transform="translate(-927.748 -127.684)" fill="#c5e1fc"></path><path d="M867.255,142.833a3.25,3.25,0,0,1,0,6.5,3.25,3.25,0,1,1,0-6.5Z" transform="translate(-853.167 -127.681)" fill="#c5e1fc"></path><path d="M1041.329,146.081a3.252,3.252,0,1,1-3.241-3.245A3.277,3.277,0,0,1,1041.329,146.081Z" transform="translate(-1002.343 -127.684)" fill="#c5e1fc"></path></svg>
