<svg xmlns="http://www.w3.org/2000/svg" width="103.785" height="59.178" viewBox="0 0 103.785 59.178"><g transform="translate(-767.502 78.699)"><path d="M833-43.838c2.322,1.428,3.957,2.944,4.272,5.494a5.28,5.28,0,0,1-5.144,5.92,37.744,37.744,0,0,1-4.292.063c-1.326-.056-2.646-.268-4.047-.42,1.9,5.81-.774,9.275-6.721,8.7-2.182-.212-4.285-1.151-6.461-1.569a3.323,3.323,0,0,0-2.552.409c-4.784,4.643-10.585,5.665-16.909,5.089a10.548,10.548,0,0,1-2.994-.42c2.155-3.222,5.272-5.326,8.021-7.78,2.846-2.541,5.8-4.964,8.7-7.444,2.886-2.466,5.766-4.939,8.859-7.59-4.058-.214-7.879-.036-11.545-.707a105.122,105.122,0,0,1-13.765-3.718c-1.735-.569-3.047-.638-4.3.6-4.049,4.024-9.211,3.134-14.143,3.244-.334.008-.675-.318-1.6-.782L777-52.32c-.187-.216-.258-.359-.373-.42-1.046-.558-2.1-1.1-3.151-1.65,1-.764,1.96-1.578,3-2.271a11.1,11.1,0,0,1,2.107-.786q-1.89-10.273-3.767-20.475c4.084-.879,7.139.373,9.085,3.779,1.694,2.965,3.281,6,4.818,9.048a6.486,6.486,0,0,0,6.671,3.978c3.168-.158,6.35-.034,10.1-.034L794.3-77.448c5.15-.856,9.626-.877,13.417,2.541,4.251,3.833,8.393,7.789,12.727,11.526a6.545,6.545,0,0,0,3.944,1.543c10.337-.062,20.672-.335,31.008-.5A16.861,16.861,0,0,1,868.824-56.2c3.02,3.452,2.568,7.231-1.5,9.32a20.98,20.98,0,0,1-8.176,2.148c-7.776.443-15.576.458-23.367.66C834.851-44.051,833.927-43.919,833-43.838ZM778.147-55.445l.146.326c3.885,0,7.772-.042,11.655.04a6.312,6.312,0,0,1,2.048.843,7.2,7.2,0,0,1-1.015,2.166,24.628,24.628,0,0,1-3.06,2.3,57.383,57.383,0,0,0,25.049,4.619,8.114,8.114,0,0,0,5.43-1.86,5.3,5.3,0,0,1,3-1.111c4.13-.2,8.271-.183,12.4-.333,2.033-.074,3.127.443,1.987,2.974,8.767-.358,17.275-.55,25.753-1.158,2.148-.154,4.358-1.38,6.253-2.571,1.624-1.021,1.879-2.851.87-4.663-.921-1.653-2.011-2.792-4.188-2.166a9.151,9.151,0,0,1-3.767.374c-.914-.138-1.719-1-2.573-1.541l.325-.844,4.231-.677a8.458,8.458,0,0,0-3.85-1.671,42.728,42.728,0,0,0-6.412-.373c-19.01.364-38.02.735-57.027,1.217a7.87,7.87,0,0,1-7.91-4.579c-1.569-3.037-3.143-6.073-4.789-9.068-1.493-2.716-3.173-3.582-6.074-3.21,1,5.468,1.95,10.939,3.054,16.379a15.326,15.326,0,0,0,1.639,3.381Zm55.438,9.455-.3-.626c-3.474,0-6.96-.171-10.416.076a8.855,8.855,0,0,0-4.691,1.661c-5.885,4.732-11.6,9.673-17.366,14.558-3.189,2.7-6.345,5.446-9.754,8.375,2.28.392,3.872.159,5.523-1.216,5.438-4.526,11.035-8.86,16.588-13.247,2.521-1.992,5.082-3.934,7.624-5.9l.348.441L796.718-22.177l.4.848c1.827-.683,3.907-1.01,5.44-2.1C812.968-30.862,823.258-38.452,833.585-45.99ZM819.679-62.079c-4.807-4.31-9.227-8.412-13.809-12.323-2.415-2.062-5.369-2.257-8.746-1.566,2.965,4.222,5.722,8.2,8.539,12.138,1.944,2.717,3.261,3.054,6.692,1.826l-7.838-8.947a35.991,35.991,0,0,1,6.714,6.479C813.377-61.688,815.928-61.009,819.679-62.079ZM772.106-46.107l.29.74c2.346-.23,5,.162,6.97-.824,3.63-1.819,6.855-4.446,10.249-6.737l-.175-.677c-2.94.24-6.226-.262-8.732.907C777.51-51.207,774.944-48.366,772.106-46.107Zm53.859,12.062c2.218,0,4.349.135,6.454-.036a3.586,3.586,0,0,0,3.176-4.622,4.148,4.148,0,0,0-4.914-3.066C827.54-40.856,825.535-37.789,825.965-34.045Zm-8.292,8.926.2-.4c.635-.034,1.458.173,1.869-.148,1.179-.921,2.774-1.906,3.1-3.153.286-1.106-.618-2.873-1.53-3.851-1.335-1.431-2.751-.287-3.968.678a6.948,6.948,0,0,1-1.152.844c-1.891.942-2.515,2.655-1.722,4.332C814.878-25.939,816.563-25.665,817.673-25.119Z" fill="#c5e1fc" stroke="#c5e1fc" stroke-width="1"></path><path d="M870.937-27.1v-2.614h10.791c.234,1.152.956,2.55-1.236,2.6C877.392-27.053,874.289-27.1,870.937-27.1Z" transform="translate(-53.588 -25.331)" fill="#c5e1fc" stroke="#c5e1fc" stroke-width="1"></path><path d="M911.1-27.181v-3.231h7.518c.039.656.086,1.461.183,3.108-1.568-.631-2.677-1.447-3.758-1.412C913.867-28.679,912.716-27.852,911.1-27.181Z" transform="translate(-74.576 -24.968)" fill="#c5e1fc" stroke="#c5e1fc" stroke-width="1"></path><path d="M827.031-26.139l-.123-2.476h4.267l.112,2.476Z" transform="translate(-30.58 -25.907)" fill="#c5e1fc" stroke="#c5e1fc" stroke-width="1"></path><path d="M931.761-30.656v2.466h-3.7c-.054-.774-.106-1.524-.172-2.466Z" transform="translate(-83.348 -24.841)" fill="#c5e1fc" stroke="#c5e1fc" stroke-width="1"></path><path d="M863.858-26.168l-1.983-2.277a7.109,7.109,0,0,1,1.957-1.3c1.017-.261,2.263-.145,1.951,1.4C865.654-27.708,864.816-27.211,863.858-26.168Z" transform="translate(-48.852 -25.26)" fill="#c5e1fc" stroke="#c5e1fc" stroke-width="1"></path><path d="M849.21-26.088a31.3,31.3,0,0,1-3.964-.886,2.832,2.832,0,0,1,.022-1.651,7.42,7.42,0,0,1,3.132-.265C848.743-28.818,848.828-27.5,849.21-26.088Z" transform="translate(-40.103 -25.722)" fill="#c5e1fc" stroke="#c5e1fc" stroke-width="1"></path><path d="M836.831-28.821h3.453c.039.745.082,1.544.133,2.515h-3.471Z" transform="translate(-35.765 -25.8)" fill="#c5e1fc" stroke="#c5e1fc" stroke-width="1"></path><path d="M898.1-27.552H895.17v-2.431C898.414-30.56,898.627-30.4,898.1-27.552Z" transform="translate(-66.251 -25.052)" fill="#c5e1fc" stroke="#c5e1fc" stroke-width="1"></path><path d="M857.2-26.885h-3.3l-.187-2.455,3.484-.179Z" transform="translate(-44.587 -25.435)" fill="#c5e1fc" stroke="#c5e1fc" stroke-width="1"></path><path d="M902.927-27.663V-30.11h3.316v2.447Z" transform="translate(-70.304 -25.126)" fill="#c5e1fc" stroke="#c5e1fc" stroke-width="1"></path></g></svg>
